<svg width="135" height="41" viewBox="0 0 135 41" fill="none" xmlns="http://www.w3.org/2000/svg">
<path d="M7.66126 39.1871H7.03516C6.94975 39.1856 6.86412 39.1835 6.77658 39.1806L6.76912 39.1803L6.76165 39.1802C6.21353 39.1699 5.61213 39.1393 5.03808 39.0313L5.03058 39.0299L5.02306 39.0286C4.50625 38.9395 4.04778 38.7839 3.62637 38.5688L3.62639 38.5688L3.61902 38.5651C3.19753 38.3544 2.80522 38.0668 2.47264 37.7314L2.46958 37.7283C2.12423 37.383 1.84243 36.9994 1.62437 36.5662L1.62183 36.5612C1.41017 36.1466 1.26154 35.7004 1.1601 35.154C1.05114 34.5556 1.02063 33.9306 1.01039 33.4254L1.01011 33.4114L1.00943 33.3973C1.00536 33.3133 1.00267 33.1044 1.0013 32.8927C1.00065 32.7921 1.00033 32.6979 1.00016 32.6289L1.00002 32.5468L1 32.5244L1 32.5187L1 32.5173V32.517V32.5169V8.62411L1.00001 8.62368L1.00035 8.60097L1.00155 8.51851L1.00521 8.25412C1.00775 8.06151 1.01043 7.83524 1.01059 7.71942C1.02105 7.20408 1.05198 6.58438 1.15988 6.00186L1.15989 6.00186L1.16065 5.99768C1.25713 5.46412 1.40728 5.0136 1.62196 4.58268C1.85091 4.14434 2.13295 3.75303 2.45944 3.42942L2.45945 3.42943L2.46251 3.42637C2.81092 3.07803 3.20365 2.78908 3.6177 2.5849L3.62734 2.58015L3.63688 2.57518C4.05744 2.35643 4.50871 2.20938 5.02851 2.11873L5.02852 2.11876L5.03602 2.11739C5.63329 2.00854 6.25716 1.97785 6.77284 1.96751L7.67063 1.95703H127.248H127.253L128.162 1.96742C128.163 1.96745 128.165 1.96748 128.166 1.96751C128.672 1.97786 129.294 2.00861 129.879 2.11689L129.879 2.11696L129.892 2.11907C130.419 2.20999 130.873 2.35725 131.292 2.57519L131.299 2.5789L131.306 2.58249C131.727 2.793 132.117 3.07922 132.447 3.4172L132.456 3.42643L132.465 3.43542C132.796 3.75814 133.08 4.14854 133.316 4.59747C133.526 5.009 133.67 5.45677 133.75 5.96425L133.753 5.9822L133.756 6.00005C133.863 6.55038 133.894 7.13671 133.915 7.75389L133.915 7.75712C133.925 8.01737 133.925 8.30854 133.925 8.61658V8.61878V8.62097V8.62316V8.62535V8.62755V8.62974V8.63193V8.63412V8.63632V8.63851V8.6407V8.64289V8.64508V8.64727V8.64946V8.65165V8.65384V8.65604V8.65823V8.66042V8.66261V8.6648V8.66699V8.66918V8.67136V8.67355V8.67574V8.67793V8.68012V8.68231V8.6845V8.68669V8.68887V8.69106V8.69325V8.69544V8.69763V8.69981V8.702V8.70419V8.70637V8.70856V8.71075V8.71293V8.71512V8.71731V8.71949V8.72168V8.72386V8.72605V8.72823V8.73042V8.7326V8.73479V8.73697V8.73916V8.74134V8.74353V8.74571V8.7479V8.75008V8.75226V8.75445V8.75663V8.75881V8.761V8.76318V8.76536V8.76754V8.76973V8.77191V8.77409V8.77627V8.77846V8.78064V8.78282V8.785V8.78718V8.78936V8.79154V8.79372V8.7959V8.79809V8.80027V8.80245V8.80463V8.80681V8.80899V8.81116V8.81334V8.81552V8.8177V8.81988V8.82206V8.82424V8.82642V8.8286V8.83077V8.83295V8.83513V8.83731V8.83949V8.84166V8.84384V8.84602V8.8482V8.85037V8.85255V8.85473V8.8569V8.85908V8.86126V8.86343V8.86561V8.86778V8.86996V8.87214V8.87431V8.87649V8.87866V8.88084V8.88301V8.88519V8.88736V8.88953V8.89171V8.89388V8.89606V8.89823V8.9004V8.90258V8.90475V8.90692V8.9091V8.91127V8.91344V8.91562V8.91779V8.91996V8.92213V8.92431V8.92648V8.92865V8.93082V8.93299V8.93516V8.93734V8.93951V8.94168V8.94385V8.94602V8.94819V8.95036V8.95253V8.9547V8.95687V8.95904V8.96121V8.96338V8.96555V8.96772V8.96989V8.97206V8.97423V8.9764V8.97856V8.98073V8.9829V8.98507V8.98724V8.98941V8.99157V8.99374V8.99591V8.99808V9.00024V9.00241V9.00458V9.00675V9.00891V9.01108V9.01325V9.01541V9.01758V9.01974V9.02191V9.02408V9.02624V9.02841V9.03057V9.03274V9.0349V9.03707V9.03923V9.0414V9.04356V9.04573V9.04789V9.05006V9.05222V9.05439V9.05655V9.05871V9.06088V9.06304V9.0652V9.06737V9.06953V9.07169V9.07386V9.07602V9.07818V9.08034V9.08251V9.08467V9.08683V9.08899V9.09115V9.09332V9.09548V9.09764V9.0998V9.10196V9.10412V9.10628V9.10845V9.11061V9.11277V9.11493V9.11709V9.11925V9.12141V9.12357V9.12573V9.12789V9.13005V9.13221V9.13437V9.13652V9.13868V9.14084V9.143V9.14516V9.14732V9.14948V9.15164V9.15379V9.15595V9.15811V9.16027V9.16243V9.16458V9.16674V9.1689V9.17106V9.17321V9.17537V9.17753V9.17968V9.18184V9.184V9.18615V9.18831V9.19047V9.19262V9.19478V9.19693V9.19909V9.20125V9.2034V9.20556V9.20771V9.20987V9.21202V9.21418V9.21633V9.21848V9.22064V9.22279V9.22495V9.2271V9.22926V9.23141V9.23356V9.23572V9.23787V9.24003V9.24218V9.24433V9.24648V9.24864V9.25079V9.25294V9.2551V9.25725V9.2594V9.26155V9.26371V9.26586V9.26801V9.27016V9.27231V9.27446V9.27662V9.27877V9.28092V9.28307V9.28522V9.28737V9.28952V9.29167V9.29382V9.29597V9.29813V9.30028V9.30243V9.30458V9.30673V9.30888V9.31103V9.31318V9.31532V9.31747V9.31962V9.32177V9.32392V9.32607V9.32822V9.33037V9.33252V9.33467V9.33681V9.33896V9.34111V9.34326V9.34541V9.34755V9.3497V9.35185V9.354V9.35614V9.35829V9.36044V9.36259V9.36473V9.36688V9.36903V9.37117V9.37332V9.37547V9.37761V9.37976V9.3819V9.38405V9.3862V9.38834V9.39049V9.39263V9.39478V9.39692V9.39907V9.40121V9.40336V9.40551V9.40765V9.40979V9.41194V9.41408V9.41623V9.41837V9.42052V9.42266V9.4248V9.42695V9.42909V9.43124V9.43338V9.43552V9.43767V9.43981V9.44195V9.4441V9.44624V9.44838V9.45053V9.45267V9.45481V9.45695V9.4591V9.46124V9.46338V9.46552V9.46766V9.46981V9.47195V9.47409V9.47623V9.47837V9.48051V9.48266V9.4848V9.48694V9.48908V9.49122V9.49336V9.4955V9.49764V9.49978V9.50192V9.50406V9.5062V9.50834V9.51048V9.51262V9.51476V9.5169V9.51904V9.52118V9.52332V9.52546V9.5276V9.52974V9.53188V9.53402V9.53616V9.5383V9.54043V9.54257V9.54471V9.54685V9.54899V9.55113V9.55327V9.5554V9.55754V9.55968V9.56182V9.56395V9.56609V9.56823V9.57037V9.5725V9.57464V9.57678V9.57892V9.58105V9.58319V9.58533V9.58746V9.5896V9.59174V9.59387V9.59601V9.59815V9.60028V9.60242V9.60455V9.60669V9.60882V9.61096V9.6131V9.61523V9.61737V9.6195V9.62164V9.62377V9.62591V9.62804V9.63018V9.63231V9.63445V9.63658V9.63872V9.64085V9.64299V9.64512V9.64725V9.64939V9.65152V9.65366V9.65579V9.65792V9.66006V9.66219V9.66432V9.66646V9.66859V9.67072V9.67286V9.67499V9.67712V9.67926V9.68139V9.68352V9.68566V9.68779V9.68992V9.69205V9.69419V9.69632V9.69845V9.70058V9.70271V9.70485V9.70698V9.70911V9.71124V9.71337V9.7155V9.71764V9.71977V9.7219V31.4222V31.4243V31.4265V31.4286V31.4307V31.4328V31.435V31.4371V31.4392V31.4414V31.4435V31.4456V31.4478V31.4499V31.452V31.4542V31.4563V31.4584V31.4606V31.4627V31.4648V31.467V31.4691V31.4712V31.4734V31.4755V31.4776V31.4798V31.4819V31.484V31.4862V31.4883V31.4904V31.4926V31.4947V31.4968V31.499V31.5011V31.5032V31.5054V31.5075V31.5096V31.5118V31.5139V31.516V31.5182V31.5203V31.5224V31.5246V31.5267V31.5289V31.531V31.5331V31.5353V31.5374V31.5395V31.5417V31.5438V31.5459V31.5481V31.5502V31.5523V31.5545V31.5566V31.5587V31.5609V31.563V31.5652V31.5673V31.5694V31.5716V31.5737V31.5758V31.578V31.5801V31.5822V31.5844V31.5865V31.5887V31.5908V31.5929V31.5951V31.5972V31.5993V31.6015V31.6036V31.6057V31.6079V31.61V31.6122V31.6143V31.6164V31.6186V31.6207V31.6228V31.625V31.6271V31.6293V31.6314V31.6335V31.6357V31.6378V31.6399V31.6421V31.6442V31.6464V31.6485V31.6506V31.6528V31.6549V31.657V31.6592V31.6613V31.6635V31.6656V31.6677V31.6699V31.672V31.6742V31.6763V31.6784V31.6806V31.6827V31.6848V31.687V31.6891V31.6913V31.6934V31.6955V31.6977V31.6998V31.702V31.7041V31.7062V31.7084V31.7105V31.7127V31.7148V31.7169V31.7191V31.7212V31.7234V31.7255V31.7276V31.7298V31.7319V31.7341V31.7362V31.7383V31.7405V31.7426V31.7448V31.7469V31.749V31.7512V31.7533V31.7554V31.7576V31.7597V31.7619V31.764V31.7661V31.7683V31.7704V31.7726V31.7747V31.7769V31.779V31.7811V31.7833V31.7854V31.7876V31.7897V31.7918V31.794V31.7961V31.7983V31.8004V31.8025V31.8047V31.8068V31.809V31.8111V31.8132V31.8154V31.8175V31.8197V31.8218V31.8239V31.8261V31.8282V31.8304V31.8325V31.8346V31.8368V31.8389V31.8411V31.8432V31.8454V31.8475V31.8496V31.8518V31.8539V31.8561V31.8582V31.8603V31.8625V31.8646V31.8668V31.8689V31.871V31.8732V31.8753V31.8775V31.8796V31.8818V31.8839V31.886V31.8882V31.8903V31.8925V31.8946V31.8967V31.8989V31.901V31.9032V31.9053V31.9074V31.9096V31.9117V31.9139V31.916V31.9182V31.9203V31.9224V31.9246V31.9267V31.9289V31.931V31.9331V31.9353V31.9374V31.9396V31.9417V31.9439V31.946V31.9481V31.9503V31.9524V31.9546V31.9567V31.9588V31.961V31.9631V31.9653V31.9674V31.9696V31.9717V31.9738V31.976V31.9781V31.9803V31.9824V31.9845V31.9867V31.9888V31.991V31.9931V31.9953V31.9974V31.9995V32.0017V32.0038V32.006V32.0081V32.0102V32.0124V32.0145V32.0167V32.0188V32.021V32.0231V32.0252V32.0274V32.0295V32.0317V32.0338V32.0359V32.0381V32.0402V32.0424V32.0445V32.0466V32.0488V32.0509V32.0531V32.0552V32.0574V32.0595V32.0616V32.0638V32.0659V32.0681V32.0702V32.0723V32.0745V32.0766V32.0788V32.0809V32.083V32.0852V32.0873V32.0895V32.0916V32.0938V32.0959V32.098V32.1002V32.1023V32.1045V32.1066V32.1087V32.1109V32.113V32.1152V32.1173V32.1194V32.1216V32.1237V32.1259V32.128V32.1302V32.1323V32.1344V32.1366V32.1387V32.1409V32.143V32.1451V32.1473V32.1494V32.1516V32.1537V32.1558V32.158V32.1601V32.1623V32.1644V32.1665V32.1687V32.1708V32.173V32.1751V32.1772V32.1794V32.1815V32.1837V32.1858V32.1879V32.1901V32.1922V32.1944V32.1965V32.1986V32.2008V32.2029V32.2051V32.2072V32.2093V32.2115V32.2136V32.2158V32.2179V32.22V32.2222V32.2243V32.2265V32.2286V32.2307V32.2329V32.235V32.2371V32.2393V32.2414V32.2436V32.2457V32.2478V32.25V32.2521V32.2543V32.2564V32.2585V32.2607V32.2628V32.265V32.2671V32.2692V32.2714V32.2735V32.2756V32.2778V32.2799V32.2821V32.2842V32.2863V32.2885V32.2906V32.2928V32.2949V32.297V32.2992V32.3013V32.3034V32.3056V32.3077V32.3099V32.312V32.3141V32.3163V32.3184V32.3205V32.3227V32.3248V32.327V32.3291V32.3312V32.3334V32.3355V32.3376V32.3398V32.3419V32.344V32.3462V32.3483V32.3505V32.3526V32.3547V32.3569V32.359V32.3611V32.3633V32.3654V32.3675V32.3697V32.3718V32.374V32.3761V32.3782V32.3804V32.3825V32.3846V32.3868V32.3889V32.391V32.3932V32.3953V32.3974V32.3996V32.4017V32.4039V32.406V32.4081V32.4103V32.4124V32.4145V32.4167V32.4188V32.4209V32.4231V32.4252V32.4273V32.4295V32.4316V32.4337V32.4359V32.438V32.4401V32.4423V32.4444V32.4465V32.4487V32.4508V32.4529V32.4551V32.4572V32.4593V32.4615V32.4636V32.4657V32.4679V32.47V32.4721V32.4743V32.4764V32.4785V32.4807V32.4828V32.4849V32.4871V32.4892V32.4913V32.4935V32.4956V32.4977V32.4999V32.502V32.5041V32.5063V32.5084V32.5105V32.5127V32.5148V32.5169C133.925 32.8444 133.925 33.1278 133.915 33.4225C133.894 34.0161 133.863 34.6095 133.765 35.1434L133.763 35.1572C133.672 35.6901 133.526 36.1331 133.307 36.5542L133.303 36.5615C133.078 37.0022 132.798 37.385 132.466 37.7147L132.463 37.7177C132.122 38.0585 131.727 38.3439 131.293 38.5664L131.288 38.5689C130.875 38.7839 130.434 38.9237 129.876 39.0272L129.87 39.0283C129.309 39.1356 128.71 39.1663 128.15 39.1766L128.141 39.1768L128.132 39.1771C127.86 39.1869 127.568 39.1871 127.26 39.1871H126.165H7.66126ZM131.753 1.68802C132.276 1.94934 132.756 2.30248 133.163 2.71918C133.579 3.12529 133.926 3.60556 134.205 4.1388C134.466 4.65085 134.643 5.20174 134.738 5.80914L131.753 1.68802ZM134.925 32.5169C134.925 32.8418 134.925 33.142 134.915 33.4563V7.71961C134.925 8.00212 134.925 8.31288 134.925 8.61658V9.7219V31.4222V32.5169Z" fill="black" stroke="#A6A6A6" stroke-width="2"/>
<path d="M39.2857 24.0844V31.463H38.4287V24.0844H39.2857ZM38.8572 23.1621C38.6982 23.1621 38.5612 23.1056 38.446 22.9927C38.3331 22.8798 38.2766 22.7441 38.2766 22.5856C38.2766 22.4271 38.3331 22.2914 38.446 22.1785C38.5612 22.0656 38.6982 22.0092 38.8572 22.0092C39.0161 22.0092 39.1521 22.0656 39.2649 22.1785C39.3801 22.2914 39.4377 22.4271 39.4377 22.5856C39.4377 22.7441 39.3801 22.8798 39.2649 22.9927C39.1521 23.1056 39.0161 23.1621 38.8572 23.1621Z" fill="white"/>
<path d="M41.7089 28.134V31.463H40.8934V25.9291H41.6812V26.7937H41.7504C41.8748 26.5127 42.0637 26.2869 42.3171 26.1164C42.5705 25.9435 42.8976 25.857 43.2985 25.857C43.6578 25.857 43.9723 25.9339 44.2418 26.0876C44.5114 26.2389 44.721 26.4695 44.8707 26.7793C45.0205 27.0868 45.0954 27.4759 45.0954 27.9466V31.463H44.2798V28.0043C44.2798 27.5695 44.1716 27.2309 43.955 26.9883C43.7385 26.7433 43.4413 26.6208 43.0635 26.6208C42.8032 26.6208 42.5705 26.6796 42.3654 26.7973C42.1627 26.915 42.0026 27.0868 41.8851 27.3125C41.7676 27.5383 41.7089 27.8121 41.7089 28.134Z" fill="white"/>
<path d="M48.5898 31.5783C48.1475 31.5783 47.757 31.4618 47.4184 31.2288C47.0797 30.9935 46.8148 30.662 46.6236 30.2345C46.4324 29.8045 46.3368 29.2965 46.3368 28.7105C46.3368 28.1292 46.4324 27.6248 46.6236 27.1973C46.8148 26.7697 47.0809 26.4395 47.4218 26.2065C47.7628 25.9735 48.1567 25.857 48.6036 25.857C48.9492 25.857 49.2222 25.917 49.4226 26.0371C49.6253 26.1548 49.7797 26.2893 49.8856 26.4407C49.9939 26.5896 50.078 26.7121 50.1379 26.8081H50.207V24.0844H51.0225V31.463H50.2347V30.6128H50.1379C50.078 30.7136 49.9928 30.8409 49.8822 30.9947C49.7716 31.146 49.6138 31.2817 49.4088 31.4018C49.2037 31.5195 48.9308 31.5783 48.5898 31.5783ZM48.7004 30.8145C49.0275 30.8145 49.304 30.7256 49.5297 30.5479C49.7555 30.3678 49.9271 30.1192 50.0446 29.8021C50.1621 29.4827 50.2208 29.114 50.2208 28.696C50.2208 28.2829 50.1632 27.9214 50.0481 27.6116C49.9329 27.2993 49.7624 27.0567 49.5366 26.8838C49.3109 26.7085 49.0321 26.6208 48.7004 26.6208C48.3548 26.6208 48.0669 26.7133 47.8365 26.8982C47.6084 27.0808 47.4368 27.3294 47.3216 27.644C47.2087 27.9563 47.1523 28.3069 47.1523 28.696C47.1523 29.09 47.2099 29.4478 47.3251 29.7697C47.4425 30.0891 47.6153 30.3437 47.8434 30.5335C48.0738 30.7208 48.3594 30.8145 48.7004 30.8145Z" fill="white"/>
<path d="M52.6294 31.463V25.9291H53.4449V31.463H52.6294ZM53.044 25.0067C52.8851 25.0067 52.748 24.9503 52.6328 24.8374C52.5199 24.7245 52.4635 24.5888 52.4635 24.4303C52.4635 24.2717 52.5199 24.136 52.6328 24.0231C52.748 23.9103 52.8851 23.8538 53.044 23.8538C53.203 23.8538 53.3389 23.9103 53.4518 24.0231C53.567 24.136 53.6246 24.2717 53.6246 24.4303C53.6246 24.5888 53.567 24.7245 53.4518 24.8374C53.3389 24.9503 53.203 25.0067 53.044 25.0067Z" fill="white"/>
<path d="M54.9386 31.463V25.9291H55.7264V26.7649H55.7817C55.8785 26.4911 56.0536 26.2689 56.307 26.0984C56.5604 25.9279 56.846 25.8426 57.1639 25.8426C57.2238 25.8426 57.2987 25.8438 57.3886 25.8462C57.4784 25.8486 57.5464 25.8522 57.5924 25.857V26.7217C57.5648 26.7145 57.5014 26.7037 57.4024 26.6893C57.3056 26.6724 57.2031 26.664 57.0948 26.664C56.8368 26.664 56.6064 26.7205 56.4037 26.8334C56.2033 26.9439 56.0443 27.0976 55.9268 27.2945C55.8117 27.4891 55.7541 27.7113 55.7541 27.9611V31.463H54.9386Z" fill="white"/>
<path d="M58.5591 31.463V25.9291H59.3746V31.463H58.5591ZM58.9738 25.0067C58.8148 25.0067 58.6778 24.9503 58.5626 24.8374C58.4497 24.7245 58.3933 24.5888 58.3933 24.4303C58.3933 24.2717 58.4497 24.136 58.5626 24.0231C58.6778 23.9103 58.8148 23.8538 58.9738 23.8538C59.1328 23.8538 59.2687 23.9103 59.3816 24.0231C59.4967 24.136 59.5543 24.2717 59.5543 24.4303C59.5543 24.5888 59.4967 24.7245 59.3816 24.8374C59.2687 24.9503 59.1328 25.0067 58.9738 25.0067Z" fill="white"/>
<path d="M61.6838 28.134V31.463H60.8683V25.9291H61.6562V26.7937H61.7253C61.8497 26.5127 62.0386 26.2869 62.292 26.1164C62.5454 25.9435 62.8725 25.857 63.2734 25.857C63.6328 25.857 63.9472 25.9339 64.2168 26.0876C64.4863 26.2389 64.6959 26.4695 64.8457 26.7793C64.9954 27.0868 65.0703 27.4759 65.0703 27.9466V31.463H64.2548V28.0043C64.2548 27.5695 64.1465 27.2309 63.93 26.9883C63.7134 26.7433 63.4162 26.6208 63.0384 26.6208C62.7781 26.6208 62.5454 26.6796 62.3404 26.7973C62.1377 26.915 61.9776 27.0868 61.8601 27.3125C61.7426 27.5383 61.6838 27.8121 61.6838 28.134Z" fill="white"/>
<path d="M40.48 19.3074H38.2766L41.6339 9.70068H44.2837L47.6362 19.3074H45.4329L42.9968 11.896H42.9208L40.48 19.3074ZM40.3423 15.5313H45.5468V17.1168H40.3423V15.5313Z" fill="white"/>
<path d="M48.7688 22.0092V12.1023H50.7632V13.3126H50.8535C50.9421 13.1187 51.0703 12.9217 51.2381 12.7215C51.409 12.5183 51.6306 12.3494 51.9029 12.2149C52.1783 12.0773 52.5202 12.0085 52.9286 12.0085C53.4605 12.0085 53.9512 12.1461 54.4007 12.4213C54.8502 12.6934 55.2095 13.1046 55.4786 13.655C55.7477 14.2022 55.8823 14.8887 55.8823 15.7142C55.8823 16.5179 55.7509 17.1965 55.4881 17.75C55.2285 18.3004 54.874 18.7179 54.4244 19.0025C53.9781 19.2839 53.4779 19.4246 52.9239 19.4246C52.5313 19.4246 52.1973 19.3605 51.9219 19.2323C51.6496 19.1041 51.4265 18.943 51.2523 18.7492C51.0782 18.5522 50.9453 18.3536 50.8535 18.1534H50.7917V22.0092H48.7688ZM50.749 15.7049C50.749 16.1333 50.8091 16.507 50.9294 16.8259C51.0497 17.1449 51.2238 17.3935 51.4518 17.5718C51.6797 17.7469 51.9567 17.8345 52.2828 17.8345C52.612 17.8345 52.8906 17.7453 53.1186 17.5671C53.3465 17.3857 53.519 17.1355 53.6362 16.8166C53.7565 16.4945 53.8166 16.1239 53.8166 15.7049C53.8166 15.2889 53.758 14.9231 53.6409 14.6072C53.5238 14.2914 53.3512 14.0443 53.1233 13.8661C52.8954 13.6878 52.6152 13.5987 52.2828 13.5987C51.9536 13.5987 51.675 13.6847 51.447 13.8567C51.2223 14.0287 51.0497 14.2726 50.9294 14.5885C50.8091 14.9043 50.749 15.2764 50.749 15.7049Z" fill="white"/>
<path d="M57.2309 22.0092V12.1023H59.2253V13.3126H59.3155C59.4042 13.1187 59.5324 12.9217 59.7002 12.7215C59.8711 12.5183 60.0927 12.3494 60.365 12.2149C60.6404 12.0773 60.9823 12.0085 61.3907 12.0085C61.9226 12.0085 62.4133 12.1461 62.8628 12.4213C63.3123 12.6934 63.6716 13.1046 63.9407 13.655C64.2098 14.2022 64.3444 14.8887 64.3444 15.7142C64.3444 16.5179 64.213 17.1965 63.9502 17.75C63.6906 18.3004 63.3361 18.7179 62.8865 19.0025C62.4402 19.2839 61.94 19.4246 61.386 19.4246C60.9934 19.4246 60.6594 19.3605 60.384 19.2323C60.1117 19.1041 59.8886 18.943 59.7144 18.7492C59.5403 18.5522 59.4074 18.3536 59.3155 18.1534H59.2538V22.0092H57.2309ZM59.2111 15.7049C59.2111 16.1333 59.2712 16.507 59.3915 16.8259C59.5118 17.1449 59.6859 17.3935 59.9139 17.5718C60.1418 17.7469 60.4188 17.8345 60.7449 17.8345C61.0741 17.8345 61.3527 17.7453 61.5807 17.5671C61.8086 17.3857 61.9811 17.1355 62.0983 16.8166C62.2186 16.4945 62.2787 16.1239 62.2787 15.7049C62.2787 15.2889 62.2201 14.9231 62.103 14.6072C61.9859 14.2914 61.8133 14.0443 61.5854 13.8661C61.3575 13.6878 61.0773 13.5987 60.7449 13.5987C60.4157 13.5987 60.1371 13.6847 59.9091 13.8567C59.6844 14.0287 59.5118 14.2726 59.3915 14.5885C59.2712 14.9043 59.2111 15.2764 59.2111 15.7049Z" fill="white"/>
<path d="M74.1017 12.4635C74.0637 12.0851 73.9006 11.7912 73.6126 11.5817C73.3245 11.3722 72.9335 11.2674 72.4396 11.2674C72.1041 11.2674 71.8207 11.3143 71.5896 11.4081C71.3585 11.4988 71.1812 11.6255 71.0578 11.7881C70.9375 11.9507 70.8773 12.1352 70.8773 12.3416C70.871 12.5136 70.9074 12.6637 70.9865 12.7919C71.0689 12.9201 71.1812 13.0311 71.3237 13.1249C71.4662 13.2156 71.6308 13.2954 71.8176 13.3642C72.0043 13.4298 72.2038 13.4861 72.4159 13.533L73.2896 13.7394C73.7139 13.8332 74.1032 13.9583 74.4578 14.1147C74.8124 14.271 75.1195 14.4634 75.3791 14.6917C75.6386 14.9199 75.8397 15.1889 75.9821 15.4985C76.1278 15.8081 76.2022 16.163 76.2053 16.5633C76.2022 17.1512 76.0502 17.6609 75.7495 18.0925C75.4519 18.5209 75.0213 18.8539 74.4578 19.0916C73.8975 19.3261 73.2216 19.4434 72.4301 19.4434C71.645 19.4434 70.9612 19.3246 70.3787 19.0869C69.7994 18.8492 69.3467 18.4974 69.0206 18.0315C68.6977 17.5624 68.5283 16.9823 68.5125 16.2912H70.5022C70.5243 16.6133 70.6177 16.8822 70.7824 17.098C70.9501 17.3107 71.1733 17.4717 71.4519 17.5812C71.7337 17.6875 72.0518 17.7406 72.4064 17.7406C72.7546 17.7406 73.057 17.6906 73.3134 17.5905C73.573 17.4905 73.774 17.3513 73.9165 17.1731C74.0589 16.9948 74.1302 16.79 74.1302 16.5586C74.1302 16.3428 74.0653 16.1614 73.9355 16.0144C73.8088 15.8675 73.6221 15.7424 73.3751 15.6392C73.1314 15.536 72.8322 15.4422 72.4776 15.3577L71.4187 15.0951C70.5987 14.898 69.9513 14.59 69.4765 14.171C69.0016 13.7519 68.7658 13.1875 68.7689 12.4776C68.7658 11.896 68.9225 11.3878 69.239 10.9531C69.5588 10.5184 69.9972 10.1791 70.5544 9.93522C71.1116 9.6913 71.7448 9.56934 72.4539 9.56934C73.1757 9.56934 73.8057 9.6913 74.3438 9.93522C74.8852 10.1791 75.3062 10.5184 75.607 10.9531C75.9077 11.3878 76.0629 11.8913 76.0724 12.4635H74.1017Z" fill="white"/>
<path d="M81.43 12.1023V13.6034H77.0375V12.1023H81.43ZM78.0347 10.3761H80.0577V17.0933C80.0577 17.2778 80.0862 17.4217 80.1431 17.5249C80.2001 17.6249 80.2793 17.6953 80.3806 17.736C80.485 17.7766 80.6053 17.7969 80.7415 17.7969C80.8364 17.7969 80.9314 17.7891 81.0264 17.7735C81.1214 17.7547 81.1942 17.7406 81.2448 17.7313L81.563 19.2182C81.4617 19.2495 81.3192 19.2855 81.1356 19.3261C80.952 19.3699 80.7288 19.3965 80.466 19.4059C79.9785 19.4246 79.5511 19.3605 79.1839 19.2135C78.8199 19.0666 78.5365 18.8383 78.3339 18.5287C78.1313 18.2191 78.0316 17.8282 78.0347 17.356V10.3761Z" fill="white"/>
<path d="M85.965 19.4481C85.2274 19.4481 84.5895 19.2933 84.0513 18.9837C83.5163 18.671 83.1031 18.2363 82.8119 17.6797C82.5206 17.1199 82.375 16.471 82.375 15.733C82.375 14.9887 82.5206 14.3383 82.8119 13.7816C83.1031 13.2219 83.5163 12.7872 84.0513 12.4776C84.5895 12.1649 85.2274 12.0085 85.965 12.0085C86.7026 12.0085 87.3389 12.1649 87.874 12.4776C88.4121 12.7872 88.8269 13.2219 89.1181 13.7816C89.4094 14.3383 89.555 14.9887 89.555 15.733C89.555 16.471 89.4094 17.1199 89.1181 17.6797C88.8269 18.2363 88.4121 18.671 87.874 18.9837C87.3389 19.2933 86.7026 19.4481 85.965 19.4481ZM85.9745 17.9001C86.3101 17.9001 86.5902 17.8063 86.815 17.6187C87.0398 17.4279 87.2091 17.1684 87.3231 16.84C87.4402 16.5117 87.4988 16.138 87.4988 15.7189C87.4988 15.2999 87.4402 14.9262 87.3231 14.5978C87.2091 14.2695 87.0398 14.0099 86.815 13.8192C86.5902 13.6284 86.3101 13.533 85.9745 13.533C85.6358 13.533 85.3508 13.6284 85.1197 13.8192C84.8918 14.0099 84.7193 14.2695 84.6021 14.5978C84.4882 14.9262 84.4312 15.2999 84.4312 15.7189C84.4312 16.138 84.4882 16.5117 84.6021 16.84C84.7193 17.1684 84.8918 17.4279 85.1197 17.6187C85.3508 17.8063 85.6358 17.9001 85.9745 17.9001Z" fill="white"/>
<path d="M90.8704 19.3074V12.1023H92.8315V13.3595H92.9075C93.0405 12.9123 93.2637 12.5746 93.5771 12.3463C93.8905 12.1149 94.2514 11.9992 94.6598 11.9992C94.7611 11.9992 94.8703 12.0054 94.9874 12.0179C95.1046 12.0304 95.2075 12.0476 95.2961 12.0695V13.8426C95.2011 13.8145 95.0697 13.7895 94.902 13.7676C94.7342 13.7457 94.5806 13.7347 94.4413 13.7347C94.1438 13.7347 93.8778 13.7988 93.6436 13.9271C93.4125 14.0521 93.2288 14.2273 93.0927 14.4524C92.9598 14.6776 92.8933 14.9371 92.8933 15.2311V19.3074H90.8704Z" fill="white"/>
<path d="M99.3265 19.4481C98.5762 19.4481 97.9304 19.298 97.3891 18.9978C96.8509 18.6944 96.4362 18.266 96.1449 17.7125C95.8537 17.1559 95.708 16.4976 95.708 15.7377C95.708 14.9966 95.8537 14.3461 96.1449 13.7863C96.4362 13.2266 96.8461 12.7903 97.3748 12.4776C97.9067 12.1649 98.5303 12.0085 99.2458 12.0085C99.727 12.0085 100.175 12.0852 100.59 12.2384C101.008 12.3885 101.372 12.6152 101.682 12.9185C101.995 13.2219 102.239 13.6034 102.413 14.0631C102.587 14.5197 102.674 15.0544 102.674 15.6673V16.2162H96.5153V14.9778H100.77C100.77 14.6901 100.707 14.4352 100.58 14.2132C100.454 13.9912 100.278 13.8176 100.053 13.6925C99.8315 13.5643 99.5734 13.5002 99.279 13.5002C98.972 13.5002 98.6997 13.5706 98.4623 13.7113C98.228 13.8489 98.0444 14.0349 97.9114 14.2695C97.7785 14.5009 97.7104 14.7589 97.7072 15.0435V16.2208C97.7072 16.5773 97.7737 16.8854 97.9067 17.1449C98.0428 17.4045 98.2343 17.6046 98.4813 17.7453C98.7282 17.8861 99.021 17.9564 99.3598 17.9564C99.5845 17.9564 99.7903 17.9252 99.9771 17.8626C100.164 17.8001 100.324 17.7063 100.457 17.5812C100.59 17.4561 100.691 17.3028 100.761 17.1215L102.632 17.2434C102.537 17.6875 102.342 18.0753 102.047 18.4067C101.756 18.7351 101.38 18.9915 100.917 19.176C100.458 19.3574 99.928 19.4481 99.3265 19.4481Z" fill="white"/>
<path d="M105.69 9.70068V10.7139C105.69 11.0016 105.633 11.2955 105.519 11.5957C105.408 11.8928 105.259 12.1743 105.072 12.4401C104.886 12.7028 104.681 12.9264 104.46 13.1109L103.567 12.5902C103.725 12.3431 103.865 12.0695 103.985 11.7693C104.108 11.4691 104.17 11.1204 104.17 10.7233V9.70068H105.69Z" fill="white"/>
<path d="M108.889 19.4246C108.335 19.4246 107.833 19.2839 107.384 19.0025C106.937 18.7179 106.583 18.3004 106.32 17.75C106.061 17.1965 105.931 16.5179 105.931 15.7142C105.931 14.8887 106.065 14.2022 106.334 13.655C106.603 13.1046 106.961 12.6934 107.408 12.4213C107.857 12.1461 108.349 12.0085 108.884 12.0085C109.293 12.0085 109.633 12.0773 109.905 12.2149C110.181 12.3494 110.402 12.5183 110.57 12.7215C110.741 12.9217 110.871 13.1187 110.96 13.3126H111.021V9.70068H113.039V19.3074H111.045V18.1534H110.96C110.865 18.3536 110.73 18.5522 110.556 18.7492C110.385 18.943 110.162 19.1041 109.886 19.2323C109.614 19.3605 109.282 19.4246 108.889 19.4246ZM109.53 17.8345C109.856 17.8345 110.132 17.7469 110.356 17.5718C110.584 17.3935 110.758 17.1449 110.879 16.8259C111.002 16.507 111.064 16.1333 111.064 15.7049C111.064 15.2764 111.004 14.9043 110.884 14.5885C110.763 14.2726 110.589 14.0287 110.361 13.8567C110.133 13.6847 109.856 13.5987 109.53 13.5987C109.198 13.5987 108.918 13.6878 108.69 13.8661C108.462 14.0443 108.289 14.2914 108.172 14.6072C108.055 14.9231 107.996 15.2889 107.996 15.7049C107.996 16.1239 108.055 16.4945 108.172 16.8166C108.292 17.1355 108.465 17.3857 108.69 17.5671C108.918 17.7453 109.198 17.8345 109.53 17.8345Z" fill="white"/>
<path d="M116.783 19.4434C116.317 19.4434 115.902 19.3637 115.538 19.2042C115.174 19.0416 114.886 18.8023 114.674 18.4865C114.465 18.1675 114.361 17.7704 114.361 17.295C114.361 16.8947 114.435 16.5586 114.584 16.2865C114.733 16.0144 114.935 15.7955 115.192 15.6298C115.448 15.4641 115.739 15.339 116.066 15.2545C116.395 15.1701 116.74 15.1107 117.101 15.0763C117.525 15.0325 117.867 14.9919 118.126 14.9543C118.386 14.9137 118.574 14.8543 118.692 14.7761C118.809 14.6979 118.867 14.5822 118.867 14.429V14.4008C118.867 14.1037 118.772 13.8739 118.582 13.7113C118.396 13.5487 118.13 13.4674 117.785 13.4674C117.42 13.4674 117.131 13.5471 116.916 13.7066C116.7 13.8629 116.558 14.06 116.488 14.2976L114.617 14.1475C114.712 13.7097 114.899 13.3313 115.178 13.0124C115.456 12.6903 115.815 12.4432 116.255 12.2712C116.699 12.0961 117.212 12.0085 117.794 12.0085C118.199 12.0085 118.587 12.0554 118.957 12.1493C119.331 12.2431 119.662 12.3885 119.95 12.5855C120.241 12.7825 120.471 13.0358 120.638 13.3454C120.806 13.6519 120.89 14.0193 120.89 14.4477V19.3074H118.972V18.3082H118.915C118.798 18.5334 118.641 18.732 118.445 18.904C118.248 19.0728 118.012 19.2057 117.737 19.3027C117.462 19.3965 117.143 19.4434 116.783 19.4434ZM117.362 18.0643C117.659 18.0643 117.922 18.0065 118.15 17.8908C118.378 17.7719 118.557 17.6124 118.687 17.4123C118.817 17.2122 118.881 16.9854 118.881 16.7321V15.9675C118.818 16.0082 118.731 16.0457 118.62 16.0801C118.513 16.1114 118.391 16.1411 118.255 16.1692C118.119 16.1943 117.982 16.2177 117.846 16.2396C117.71 16.2584 117.587 16.2756 117.476 16.2912C117.238 16.3256 117.031 16.3803 116.854 16.4554C116.677 16.5304 116.539 16.6321 116.441 16.7603C116.343 16.8854 116.293 17.0417 116.293 17.2294C116.293 17.5014 116.393 17.7094 116.593 17.8532C116.795 17.9939 117.052 18.0643 117.362 18.0643Z" fill="white"/>
<path d="M124.483 15.142V19.3074H122.46V12.1023H124.388V13.3735H124.473C124.634 12.9545 124.905 12.623 125.285 12.3791C125.665 12.1321 126.126 12.0085 126.667 12.0085C127.173 12.0085 127.615 12.118 127.992 12.3369C128.368 12.5558 128.661 12.8685 128.87 13.275C129.079 13.6784 129.184 14.16 129.184 14.7198V19.3074H127.161V15.0763C127.164 14.6354 127.05 14.2914 126.819 14.0443C126.588 13.7942 126.27 13.6691 125.864 13.6691C125.592 13.6691 125.352 13.7269 125.143 13.8426C124.937 13.9583 124.775 14.1272 124.658 14.3492C124.544 14.5681 124.486 14.8324 124.483 15.142Z" fill="white"/>
<path d="M26.1956 18.5855C26.1662 15.0796 28.8723 13.374 28.996 13.2946C27.4634 10.8982 25.088 10.5708 24.2533 10.5447C22.2582 10.3195 20.323 11.825 19.3067 11.825C18.2702 11.825 16.7052 10.5665 15.0184 10.6034C12.8479 10.6393 10.8174 11.9871 9.70369 14.0799C7.40537 18.3472 9.11947 24.6182 11.3214 28.0675C12.4229 29.7579 13.71 31.643 15.3947 31.5766C17.0429 31.5048 17.6586 30.4508 19.6475 30.4508C21.6182 30.4508 22.1964 31.5766 23.9145 31.5342C25.6834 31.5048 26.7971 29.8373 27.86 28.1328C29.1329 26.1976 29.6441 24.2897 29.6644 24.1918C29.6238 24.1766 26.2301 22.7864 26.1956 18.5855ZM22.95 8.27563C23.8364 7.0867 24.443 5.4692 24.2746 3.82776C22.9916 3.88867 21.387 4.77955 20.463 5.94237C19.6455 6.96705 18.9152 8.64655 19.1039 10.226C20.5452 10.3413 22.025 9.44606 22.95 8.27563Z" fill="white"/>
</svg>
