<svg width="136" height="41" viewBox="0 0 136 41" fill="none" xmlns="http://www.w3.org/2000/svg">
<path d="M8.19862 39.1871H7.57252C7.4871 39.1856 7.40148 39.1835 7.31394 39.1806L7.30647 39.1803L7.299 39.1802C6.75089 39.1699 6.14948 39.1393 5.57543 39.0313L5.56793 39.0299L5.56042 39.0286C5.0436 38.9395 4.58514 38.7839 4.16373 38.5688L4.16374 38.5688L4.15637 38.5651C3.73489 38.3544 3.34257 38.0668 3.00999 37.7314L3.00693 37.7283C2.66159 37.383 2.37978 36.9994 2.16173 36.5662L2.15918 36.5612C1.94752 36.1466 1.79889 35.7004 1.69745 35.154C1.58849 34.5556 1.55799 33.9306 1.54774 33.4254L1.54746 33.4114L1.54678 33.3973C1.54271 33.3133 1.54003 33.1044 1.53866 32.8927C1.53801 32.7921 1.53768 32.6979 1.53752 32.6289L1.53737 32.5468L1.53736 32.5244L1.53735 32.5187L1.53735 32.5173V32.517V32.5169V8.62411L1.53736 8.62368L1.5377 8.60097L1.5389 8.51851L1.54256 8.25412C1.5451 8.06151 1.54778 7.83524 1.54794 7.71942C1.55841 7.20408 1.58934 6.58438 1.69724 6.00186L1.69725 6.00186L1.698 5.99768C1.79449 5.46412 1.94463 5.0136 2.15931 4.58268C2.38826 4.14434 2.6703 3.75303 2.9968 3.42942L2.9968 3.42943L2.99987 3.42637C3.34828 3.07803 3.741 2.78908 4.15505 2.5849L4.16469 2.58015L4.17423 2.57518C4.59479 2.35643 5.04606 2.20938 5.56587 2.11873L5.56587 2.11876L5.57338 2.11739C6.17065 2.00854 6.79451 1.97785 7.3102 1.96751L8.20798 1.95703H127.785H127.791L128.699 1.96742C128.701 1.96745 128.702 1.96748 128.704 1.96751C129.21 1.97786 129.832 2.00861 130.417 2.11689L130.417 2.11696L130.429 2.11907C130.956 2.20999 131.41 2.35725 131.829 2.57519L131.836 2.5789L131.844 2.58249C132.265 2.793 132.654 3.07922 132.984 3.4172L132.993 3.42643L133.002 3.43542C133.333 3.75814 133.618 4.14854 133.853 4.59747C134.063 5.009 134.208 5.45677 134.287 5.96425L134.29 5.9822L134.294 6.00005C134.401 6.55038 134.431 7.13671 134.452 7.75389L134.453 7.75712C134.462 8.01737 134.463 8.30854 134.463 8.61658V8.61878V8.62097V8.62316V8.62535V8.62755V8.62974V8.63193V8.63412V8.63632V8.63851V8.6407V8.64289V8.64508V8.64727V8.64946V8.65165V8.65384V8.65604V8.65823V8.66042V8.66261V8.6648V8.66699V8.66918V8.67136V8.67355V8.67574V8.67793V8.68012V8.68231V8.6845V8.68669V8.68887V8.69106V8.69325V8.69544V8.69763V8.69981V8.702V8.70419V8.70637V8.70856V8.71075V8.71293V8.71512V8.71731V8.71949V8.72168V8.72386V8.72605V8.72823V8.73042V8.7326V8.73479V8.73697V8.73916V8.74134V8.74353V8.74571V8.7479V8.75008V8.75226V8.75445V8.75663V8.75881V8.761V8.76318V8.76536V8.76754V8.76973V8.77191V8.77409V8.77627V8.77846V8.78064V8.78282V8.785V8.78718V8.78936V8.79154V8.79372V8.7959V8.79809V8.80027V8.80245V8.80463V8.80681V8.80899V8.81116V8.81334V8.81552V8.8177V8.81988V8.82206V8.82424V8.82642V8.8286V8.83077V8.83295V8.83513V8.83731V8.83949V8.84166V8.84384V8.84602V8.8482V8.85037V8.85255V8.85473V8.8569V8.85908V8.86126V8.86343V8.86561V8.86778V8.86996V8.87214V8.87431V8.87649V8.87866V8.88084V8.88301V8.88519V8.88736V8.88953V8.89171V8.89388V8.89606V8.89823V8.9004V8.90258V8.90475V8.90692V8.9091V8.91127V8.91344V8.91562V8.91779V8.91996V8.92213V8.92431V8.92648V8.92865V8.93082V8.93299V8.93516V8.93734V8.93951V8.94168V8.94385V8.94602V8.94819V8.95036V8.95253V8.9547V8.95687V8.95904V8.96121V8.96338V8.96555V8.96772V8.96989V8.97206V8.97423V8.9764V8.97856V8.98073V8.9829V8.98507V8.98724V8.98941V8.99157V8.99374V8.99591V8.99808V9.00024V9.00241V9.00458V9.00675V9.00891V9.01108V9.01325V9.01541V9.01758V9.01974V9.02191V9.02408V9.02624V9.02841V9.03057V9.03274V9.0349V9.03707V9.03923V9.0414V9.04356V9.04573V9.04789V9.05006V9.05222V9.05439V9.05655V9.05871V9.06088V9.06304V9.0652V9.06737V9.06953V9.07169V9.07386V9.07602V9.07818V9.08034V9.08251V9.08467V9.08683V9.08899V9.09115V9.09332V9.09548V9.09764V9.0998V9.10196V9.10412V9.10628V9.10845V9.11061V9.11277V9.11493V9.11709V9.11925V9.12141V9.12357V9.12573V9.12789V9.13005V9.13221V9.13437V9.13652V9.13868V9.14084V9.143V9.14516V9.14732V9.14948V9.15164V9.15379V9.15595V9.15811V9.16027V9.16243V9.16458V9.16674V9.1689V9.17106V9.17321V9.17537V9.17753V9.17968V9.18184V9.184V9.18615V9.18831V9.19047V9.19262V9.19478V9.19693V9.19909V9.20125V9.2034V9.20556V9.20771V9.20987V9.21202V9.21418V9.21633V9.21848V9.22064V9.22279V9.22495V9.2271V9.22926V9.23141V9.23356V9.23572V9.23787V9.24003V9.24218V9.24433V9.24648V9.24864V9.25079V9.25294V9.2551V9.25725V9.2594V9.26155V9.26371V9.26586V9.26801V9.27016V9.27231V9.27446V9.27662V9.27877V9.28092V9.28307V9.28522V9.28737V9.28952V9.29167V9.29382V9.29597V9.29813V9.30028V9.30243V9.30458V9.30673V9.30888V9.31103V9.31318V9.31532V9.31747V9.31962V9.32177V9.32392V9.32607V9.32822V9.33037V9.33252V9.33467V9.33681V9.33896V9.34111V9.34326V9.34541V9.34755V9.3497V9.35185V9.354V9.35614V9.35829V9.36044V9.36259V9.36473V9.36688V9.36903V9.37117V9.37332V9.37547V9.37761V9.37976V9.3819V9.38405V9.3862V9.38834V9.39049V9.39263V9.39478V9.39692V9.39907V9.40121V9.40336V9.40551V9.40765V9.40979V9.41194V9.41408V9.41623V9.41837V9.42052V9.42266V9.4248V9.42695V9.42909V9.43124V9.43338V9.43552V9.43767V9.43981V9.44195V9.4441V9.44624V9.44838V9.45053V9.45267V9.45481V9.45695V9.4591V9.46124V9.46338V9.46552V9.46766V9.46981V9.47195V9.47409V9.47623V9.47837V9.48051V9.48266V9.4848V9.48694V9.48908V9.49122V9.49336V9.4955V9.49764V9.49978V9.50192V9.50406V9.5062V9.50834V9.51048V9.51262V9.51476V9.5169V9.51904V9.52118V9.52332V9.52546V9.5276V9.52974V9.53188V9.53402V9.53616V9.5383V9.54043V9.54257V9.54471V9.54685V9.54899V9.55113V9.55327V9.5554V9.55754V9.55968V9.56182V9.56395V9.56609V9.56823V9.57037V9.5725V9.57464V9.57678V9.57892V9.58105V9.58319V9.58533V9.58746V9.5896V9.59174V9.59387V9.59601V9.59815V9.60028V9.60242V9.60455V9.60669V9.60882V9.61096V9.6131V9.61523V9.61737V9.6195V9.62164V9.62377V9.62591V9.62804V9.63018V9.63231V9.63445V9.63658V9.63872V9.64085V9.64299V9.64512V9.64725V9.64939V9.65152V9.65366V9.65579V9.65792V9.66006V9.66219V9.66432V9.66646V9.66859V9.67072V9.67286V9.67499V9.67712V9.67926V9.68139V9.68352V9.68566V9.68779V9.68992V9.69205V9.69419V9.69632V9.69845V9.70058V9.70271V9.70485V9.70698V9.70911V9.71124V9.71337V9.7155V9.71764V9.71977V9.7219V31.4222V31.4243V31.4265V31.4286V31.4307V31.4328V31.435V31.4371V31.4392V31.4414V31.4435V31.4456V31.4478V31.4499V31.452V31.4542V31.4563V31.4584V31.4606V31.4627V31.4648V31.467V31.4691V31.4712V31.4734V31.4755V31.4776V31.4798V31.4819V31.484V31.4862V31.4883V31.4904V31.4926V31.4947V31.4968V31.499V31.5011V31.5032V31.5054V31.5075V31.5096V31.5118V31.5139V31.516V31.5182V31.5203V31.5224V31.5246V31.5267V31.5289V31.531V31.5331V31.5353V31.5374V31.5395V31.5417V31.5438V31.5459V31.5481V31.5502V31.5523V31.5545V31.5566V31.5587V31.5609V31.563V31.5652V31.5673V31.5694V31.5716V31.5737V31.5758V31.578V31.5801V31.5822V31.5844V31.5865V31.5887V31.5908V31.5929V31.5951V31.5972V31.5993V31.6015V31.6036V31.6057V31.6079V31.61V31.6122V31.6143V31.6164V31.6186V31.6207V31.6228V31.625V31.6271V31.6293V31.6314V31.6335V31.6357V31.6378V31.6399V31.6421V31.6442V31.6464V31.6485V31.6506V31.6528V31.6549V31.657V31.6592V31.6613V31.6635V31.6656V31.6677V31.6699V31.672V31.6742V31.6763V31.6784V31.6806V31.6827V31.6848V31.687V31.6891V31.6913V31.6934V31.6955V31.6977V31.6998V31.702V31.7041V31.7062V31.7084V31.7105V31.7127V31.7148V31.7169V31.7191V31.7212V31.7234V31.7255V31.7276V31.7298V31.7319V31.7341V31.7362V31.7383V31.7405V31.7426V31.7448V31.7469V31.749V31.7512V31.7533V31.7554V31.7576V31.7597V31.7619V31.764V31.7661V31.7683V31.7704V31.7726V31.7747V31.7769V31.779V31.7811V31.7833V31.7854V31.7876V31.7897V31.7918V31.794V31.7961V31.7983V31.8004V31.8025V31.8047V31.8068V31.809V31.8111V31.8132V31.8154V31.8175V31.8197V31.8218V31.8239V31.8261V31.8282V31.8304V31.8325V31.8346V31.8368V31.8389V31.8411V31.8432V31.8454V31.8475V31.8496V31.8518V31.8539V31.8561V31.8582V31.8603V31.8625V31.8646V31.8668V31.8689V31.871V31.8732V31.8753V31.8775V31.8796V31.8818V31.8839V31.886V31.8882V31.8903V31.8925V31.8946V31.8967V31.8989V31.901V31.9032V31.9053V31.9074V31.9096V31.9117V31.9139V31.916V31.9182V31.9203V31.9224V31.9246V31.9267V31.9289V31.931V31.9331V31.9353V31.9374V31.9396V31.9417V31.9439V31.946V31.9481V31.9503V31.9524V31.9546V31.9567V31.9588V31.961V31.9631V31.9653V31.9674V31.9696V31.9717V31.9738V31.976V31.9781V31.9803V31.9824V31.9845V31.9867V31.9888V31.991V31.9931V31.9953V31.9974V31.9995V32.0017V32.0038V32.006V32.0081V32.0102V32.0124V32.0145V32.0167V32.0188V32.021V32.0231V32.0252V32.0274V32.0295V32.0317V32.0338V32.0359V32.0381V32.0402V32.0424V32.0445V32.0466V32.0488V32.0509V32.0531V32.0552V32.0574V32.0595V32.0616V32.0638V32.0659V32.0681V32.0702V32.0723V32.0745V32.0766V32.0788V32.0809V32.083V32.0852V32.0873V32.0895V32.0916V32.0938V32.0959V32.098V32.1002V32.1023V32.1045V32.1066V32.1087V32.1109V32.113V32.1152V32.1173V32.1194V32.1216V32.1237V32.1259V32.128V32.1302V32.1323V32.1344V32.1366V32.1387V32.1409V32.143V32.1451V32.1473V32.1494V32.1516V32.1537V32.1558V32.158V32.1601V32.1623V32.1644V32.1665V32.1687V32.1708V32.173V32.1751V32.1772V32.1794V32.1815V32.1837V32.1858V32.1879V32.1901V32.1922V32.1944V32.1965V32.1986V32.2008V32.2029V32.2051V32.2072V32.2093V32.2115V32.2136V32.2158V32.2179V32.22V32.2222V32.2243V32.2265V32.2286V32.2307V32.2329V32.235V32.2371V32.2393V32.2414V32.2436V32.2457V32.2478V32.25V32.2521V32.2543V32.2564V32.2585V32.2607V32.2628V32.265V32.2671V32.2692V32.2714V32.2735V32.2756V32.2778V32.2799V32.2821V32.2842V32.2863V32.2885V32.2906V32.2928V32.2949V32.297V32.2992V32.3013V32.3034V32.3056V32.3077V32.3099V32.312V32.3141V32.3163V32.3184V32.3205V32.3227V32.3248V32.327V32.3291V32.3312V32.3334V32.3355V32.3376V32.3398V32.3419V32.344V32.3462V32.3483V32.3505V32.3526V32.3547V32.3569V32.359V32.3611V32.3633V32.3654V32.3675V32.3697V32.3718V32.374V32.3761V32.3782V32.3804V32.3825V32.3846V32.3868V32.3889V32.391V32.3932V32.3953V32.3974V32.3996V32.4017V32.4039V32.406V32.4081V32.4103V32.4124V32.4145V32.4167V32.4188V32.4209V32.4231V32.4252V32.4273V32.4295V32.4316V32.4337V32.4359V32.438V32.4401V32.4423V32.4444V32.4465V32.4487V32.4508V32.4529V32.4551V32.4572V32.4593V32.4615V32.4636V32.4657V32.4679V32.47V32.4721V32.4743V32.4764V32.4785V32.4807V32.4828V32.4849V32.4871V32.4892V32.4913V32.4935V32.4956V32.4977V32.4999V32.502V32.5041V32.5063V32.5084V32.5105V32.5127V32.5148V32.5169C134.463 32.8444 134.462 33.1278 134.452 33.4225C134.431 34.0161 134.401 34.6095 134.302 35.1434L134.3 35.1572C134.21 35.6901 134.063 36.1331 133.844 36.5542L133.841 36.5615C133.616 37.0022 133.336 37.385 133.003 37.7147L133 37.7177C132.659 38.0585 132.264 38.3439 131.83 38.5664L131.826 38.5689C131.412 38.7839 130.972 38.9237 130.413 39.0272L130.407 39.0283C129.846 39.1356 129.247 39.1663 128.687 39.1766L128.678 39.1768L128.669 39.1771C128.397 39.1869 128.105 39.1871 127.798 39.1871H126.703H8.19862ZM132.291 1.68802C132.813 1.94934 133.294 2.30248 133.7 2.71918C134.117 3.12529 134.463 3.60556 134.742 4.1388C135.003 4.65085 135.18 5.20174 135.275 5.80914L132.291 1.68802ZM135.463 32.5169C135.463 32.8418 135.463 33.142 135.452 33.4563V7.71961C135.463 8.00212 135.463 8.31288 135.463 8.61658V9.7219V31.4222V32.5169Z" fill="black" stroke="#A6A6A6" stroke-width="2"/>
<path d="M37.8571 26.3902V25.7417C37.8571 25.5447 37.8909 25.3358 37.9586 25.1148C38.0287 24.8914 38.1291 24.6765 38.2598 24.4699C38.3929 24.2609 38.5528 24.0796 38.7395 23.9259L39.1877 24.3006C39.0407 24.5167 38.9123 24.7425 38.8026 24.9779C38.6952 25.2109 38.6415 25.4607 38.6415 25.7273V26.3902H37.8571Z" fill="white"/>
<path d="M42.1327 31.5783C41.6845 31.5783 41.2888 31.4618 40.9456 31.2288C40.6024 30.9935 40.334 30.662 40.1402 30.2345C39.9465 29.8045 39.8496 29.2965 39.8496 28.7105C39.8496 28.1292 39.9465 27.6248 40.1402 27.1973C40.334 26.7697 40.6036 26.4395 40.9491 26.2065C41.2946 25.9735 41.6938 25.857 42.1467 25.857C42.4969 25.857 42.7735 25.917 42.9766 26.0371C43.1821 26.1548 43.3385 26.2893 43.4459 26.4407C43.5556 26.5896 43.6408 26.7121 43.7015 26.8081H43.7715V24.0844H44.5979V31.463H43.7995V30.6128H43.7015C43.6408 30.7136 43.5544 30.8409 43.4424 30.9947C43.3303 31.146 43.1704 31.2817 42.9626 31.4018C42.7548 31.5195 42.4782 31.5783 42.1327 31.5783ZM42.2448 30.8145C42.5763 30.8145 42.8564 30.7256 43.0852 30.5479C43.314 30.3678 43.4879 30.1192 43.6069 29.8021C43.726 29.4827 43.7855 29.114 43.7855 28.696C43.7855 28.2829 43.7272 27.9214 43.6104 27.6116C43.4937 27.2993 43.321 27.0567 43.0922 26.8838C42.8634 26.7085 42.5809 26.6208 42.2448 26.6208C41.8946 26.6208 41.6028 26.7133 41.3693 26.8982C41.1382 27.0808 40.9643 27.3294 40.8476 27.644C40.7332 27.9563 40.676 28.3069 40.676 28.696C40.676 29.09 40.7343 29.4478 40.8511 29.7697C40.9701 30.0891 41.1452 30.3437 41.3763 30.5335C41.6098 30.7208 41.8993 30.8145 42.2448 30.8145Z" fill="white"/>
<path d="M48.4813 31.5783C47.9631 31.5783 47.516 31.4606 47.1402 31.2252C46.7667 30.9874 46.4784 30.656 46.2753 30.2309C46.0745 29.8033 45.9741 29.3061 45.9741 28.7393C45.9741 28.1724 46.0745 27.6728 46.2753 27.2405C46.4784 26.8057 46.7608 26.4671 47.1227 26.2245C47.4869 25.9795 47.9117 25.857 48.3973 25.857C48.6774 25.857 48.9541 25.905 49.2272 26.0011C49.5004 26.0972 49.749 26.2533 49.9731 26.4695C50.1972 26.6832 50.3758 26.9667 50.5089 27.3198C50.6419 27.6728 50.7085 28.1076 50.7085 28.624V28.9843H46.5624V28.2493H49.868C49.868 27.937 49.8073 27.6584 49.6859 27.4134C49.5669 27.1684 49.3965 26.9751 49.1747 26.8334C48.9552 26.6917 48.6961 26.6208 48.3973 26.6208C48.0681 26.6208 47.7833 26.7049 47.5429 26.873C47.3048 27.0387 47.1215 27.2549 46.9931 27.5215C46.8647 27.7881 46.8005 28.0739 46.8005 28.379V28.869C46.8005 29.2869 46.8706 29.6412 47.0106 29.9318C47.153 30.22 47.3503 30.4398 47.6024 30.5911C47.8545 30.7401 48.1475 30.8145 48.4813 30.8145C48.6985 30.8145 48.8946 30.7833 49.0696 30.7208C49.2471 30.656 49.4 30.5599 49.5284 30.4326C49.6568 30.3029 49.756 30.142 49.826 29.9498L50.6244 30.1804C50.5404 30.459 50.3991 30.704 50.2007 30.9154C50.0023 31.1244 49.7571 31.2877 49.4653 31.4054C49.1735 31.5207 48.8455 31.5783 48.4813 31.5783Z" fill="white"/>
<path d="M52.792 28.134V31.463H51.9656V25.9291H52.764V26.7937H52.834C52.9601 26.5127 53.1515 26.2869 53.4083 26.1164C53.6651 25.9435 53.9966 25.857 54.4028 25.857C54.767 25.857 55.0856 25.9339 55.3588 26.0876C55.6319 26.2389 55.8443 26.4695 55.9961 26.7793C56.1478 27.0868 56.2237 27.4759 56.2237 27.9466V31.463H55.3973V28.0043C55.3973 27.5695 55.2876 27.2309 55.0681 26.9883C54.8487 26.7433 54.5475 26.6208 54.1647 26.6208C53.9009 26.6208 53.6651 26.6796 53.4573 26.7973C53.2519 26.915 53.0896 27.0868 52.9706 27.3125C52.8515 27.5383 52.792 27.8121 52.792 28.134Z" fill="white"/>
<path d="M61.4877 24.0844V31.463H60.6192V24.0844H61.4877ZM61.0534 23.1621C60.8924 23.1621 60.7535 23.1056 60.6367 22.9927C60.5224 22.8798 60.4652 22.7441 60.4652 22.5856C60.4652 22.4271 60.5224 22.2914 60.6367 22.1785C60.7535 22.0656 60.8924 22.0092 61.0534 22.0092C61.2145 22.0092 61.3523 22.0656 61.4667 22.1785C61.5834 22.2914 61.6417 22.4271 61.6417 22.5856C61.6417 22.7441 61.5834 22.8798 61.4667 22.9927C61.3523 23.1056 61.2145 23.1621 61.0534 23.1621Z" fill="white"/>
<path d="M63.9433 28.134V31.463H63.1168V25.9291H63.9152V26.7937H63.9853C64.1113 26.5127 64.3028 26.2869 64.5596 26.1164C64.8164 25.9435 65.1479 25.857 65.5541 25.857C65.9182 25.857 66.2369 25.9339 66.51 26.0876C66.7832 26.2389 66.9956 26.4695 67.1473 26.7793C67.2991 27.0868 67.375 27.4759 67.375 27.9466V31.463H66.5485V28.0043C66.5485 27.5695 66.4388 27.2309 66.2194 26.9883C65.9999 26.7433 65.6988 26.6208 65.3159 26.6208C65.0521 26.6208 64.8164 26.6796 64.6086 26.7973C64.4031 26.915 64.2409 27.0868 64.1218 27.3125C64.0028 27.5383 63.9433 27.8121 63.9433 28.134Z" fill="white"/>
<path d="M70.9161 31.5783C70.4679 31.5783 70.0722 31.4618 69.729 31.2288C69.3858 30.9935 69.1174 30.662 68.9236 30.2345C68.7298 29.8045 68.633 29.2965 68.633 28.7105C68.633 28.1292 68.7298 27.6248 68.9236 27.1973C69.1174 26.7697 69.387 26.4395 69.7325 26.2065C70.078 25.9735 70.4772 25.857 70.9301 25.857C71.2803 25.857 71.5569 25.917 71.76 26.0371C71.9654 26.1548 72.1218 26.2893 72.2292 26.4407C72.339 26.5896 72.4242 26.7121 72.4849 26.8081H72.5549V24.0844H73.3813V31.463H72.5829V30.6128H72.4849C72.4242 30.7136 72.3378 30.8409 72.2257 30.9947C72.1137 31.146 71.9538 31.2817 71.746 31.4018C71.5382 31.5195 71.2616 31.5783 70.9161 31.5783ZM71.0281 30.8145C71.3596 30.8145 71.6398 30.7256 71.8686 30.5479C72.0973 30.3678 72.2713 30.1192 72.3903 29.8021C72.5094 29.4827 72.5689 29.114 72.5689 28.696C72.5689 28.2829 72.5105 27.9214 72.3938 27.6116C72.2771 27.2993 72.1043 27.0567 71.8756 26.8838C71.6468 26.7085 71.3643 26.6208 71.0281 26.6208C70.678 26.6208 70.3862 26.7133 70.1527 26.8982C69.9216 27.0808 69.7477 27.3294 69.6309 27.644C69.5166 27.9563 69.4594 28.3069 69.4594 28.696C69.4594 29.09 69.5177 29.4478 69.6344 29.7697C69.7535 30.0891 69.9286 30.3437 70.1597 30.5335C70.3932 30.7208 70.6826 30.8145 71.0281 30.8145Z" fill="white"/>
<path d="M75.0096 31.463V25.9291H75.836V31.463H75.0096ZM75.4298 25.0067C75.2687 25.0067 75.1298 24.9503 75.0131 24.8374C74.8987 24.7245 74.8415 24.5888 74.8415 24.4303C74.8415 24.2717 74.8987 24.136 75.0131 24.0231C75.1298 23.9103 75.2687 23.8538 75.4298 23.8538C75.5909 23.8538 75.7286 23.9103 75.843 24.0231C75.9597 24.136 76.0181 24.2717 76.0181 24.4303C76.0181 24.5888 75.9597 24.7245 75.843 24.8374C75.7286 24.9503 75.5909 25.0067 75.4298 25.0067Z" fill="white"/>
<path d="M77.3496 31.463V25.9291H78.148V26.7649H78.2041C78.3021 26.4911 78.4795 26.2689 78.7363 26.0984C78.9931 25.9279 79.2826 25.8426 79.6048 25.8426C79.6655 25.8426 79.7413 25.8438 79.8324 25.8462C79.9234 25.8486 79.9923 25.8522 80.039 25.857V26.7217C80.011 26.7145 79.9468 26.7037 79.8464 26.6893C79.7483 26.6724 79.6444 26.664 79.5347 26.664C79.2733 26.664 79.0398 26.7205 78.8344 26.8334C78.6313 26.9439 78.4702 27.0976 78.3511 27.2945C78.2344 27.4891 78.1761 27.7113 78.1761 27.9611V31.463H77.3496Z" fill="white"/>
<path d="M81.0186 31.463V25.9291H81.845V31.463H81.0186ZM81.4388 25.0067C81.2777 25.0067 81.1388 24.9503 81.0221 24.8374C80.9077 24.7245 80.8505 24.5888 80.8505 24.4303C80.8505 24.2717 80.9077 24.136 81.0221 24.0231C81.1388 23.9103 81.2777 23.8538 81.4388 23.8538C81.5999 23.8538 81.7376 23.9103 81.852 24.0231C81.9687 24.136 82.0271 24.2717 82.0271 24.4303C82.0271 24.5888 81.9687 24.7245 81.852 24.8374C81.7376 24.9503 81.5999 25.0067 81.4388 25.0067Z" fill="white"/>
<path d="M84.185 28.134V31.463H83.3586V25.9291H84.157V26.7937H84.227C84.3531 26.5127 84.5445 26.2869 84.8013 26.1164C85.0581 25.9435 85.3896 25.857 85.7958 25.857C86.16 25.857 86.4787 25.9339 86.7518 26.0876C87.0249 26.2389 87.2374 26.4695 87.3891 26.7793C87.5409 27.0868 87.6167 27.4759 87.6167 27.9466V31.463H86.7903V28.0043C86.7903 27.5695 86.6806 27.2309 86.4612 26.9883C86.2417 26.7433 85.9406 26.6208 85.5577 26.6208C85.2939 26.6208 85.0581 26.6796 84.8504 26.7973C84.6449 26.915 84.4827 27.0868 84.3636 27.3125C84.2446 27.5383 84.185 27.8121 84.185 28.134Z" fill="white"/>
<path d="M45.3557 12.7674C45.29 12.5418 45.1977 12.3425 45.0788 12.1695C44.9599 11.9934 44.8144 11.845 44.6424 11.7245C44.4734 11.6009 44.2795 11.5067 44.0605 11.4418C43.8446 11.3769 43.6053 11.3445 43.3425 11.3445C42.8513 11.3445 42.4196 11.465 42.0473 11.706C41.6781 11.947 41.3903 12.2977 41.1838 12.7581C40.9773 13.2154 40.8741 13.7747 40.8741 14.4359C40.8741 15.0972 40.9758 15.6595 41.1791 16.123C41.3825 16.5865 41.6703 16.9403 42.0426 17.1844C42.4149 17.4254 42.8544 17.5459 43.3613 17.5459C43.8211 17.5459 44.2138 17.4656 44.5391 17.3049C44.8676 17.1411 45.1179 16.9109 45.29 16.6143C45.4652 16.3177 45.5528 15.967 45.5528 15.5622L45.9657 15.6224H43.488V14.1115H47.5096V15.3073C47.5096 16.1415 47.3313 16.8584 46.9747 17.4578C46.618 18.0542 46.1268 18.5146 45.5011 18.839C44.8754 19.1604 44.159 19.321 43.3519 19.321C42.4509 19.321 41.6594 19.1248 40.9773 18.7324C40.2953 18.3369 39.7635 17.7761 39.3818 17.05C39.0033 16.3208 38.814 15.4556 38.814 14.4545C38.814 13.6851 38.9266 12.9991 39.1519 12.3966C39.3803 11.791 39.6994 11.278 40.1092 10.8578C40.519 10.4376 40.9961 10.1178 41.5405 9.89841C42.0848 9.67903 42.6745 9.56934 43.3096 9.56934C43.854 9.56934 44.3608 9.64813 44.8301 9.80571C45.2993 9.96021 45.7154 10.1796 46.0783 10.4639C46.4444 10.7481 46.7431 11.0865 46.9747 11.4789C47.2062 11.8682 47.3548 12.2977 47.4205 12.7674H45.3557Z" fill="white"/>
<path d="M52.2551 19.3303C51.5262 19.3303 50.8958 19.1774 50.364 18.8715C49.8353 18.5625 49.427 18.133 49.1392 17.583C48.8514 17.0299 48.7074 16.3887 48.7074 15.6595C48.7074 14.9241 48.8514 14.2814 49.1392 13.7314C49.427 13.1783 49.8353 12.7488 50.364 12.4429C50.8958 12.1339 51.5262 11.9795 52.2551 11.9795C52.9841 11.9795 53.6129 12.1339 54.1416 12.4429C54.6735 12.7488 55.0833 13.1783 55.3711 13.7314C55.6589 14.2814 55.8029 14.9241 55.8029 15.6595C55.8029 16.3887 55.6589 17.0299 55.3711 17.583C55.0833 18.133 54.6735 18.5625 54.1416 18.8715C53.6129 19.1774 52.9841 19.3303 52.2551 19.3303ZM52.2645 17.8008C52.5962 17.8008 52.873 17.7081 53.0951 17.5227C53.3173 17.3342 53.4846 17.0778 53.5973 16.7533C53.713 16.4289 53.7709 16.0597 53.7709 15.6456C53.7709 15.2316 53.713 14.8623 53.5973 14.5379C53.4846 14.2134 53.3173 13.957 53.0951 13.7685C52.873 13.58 52.5962 13.4858 52.2645 13.4858C51.9298 13.4858 51.6482 13.58 51.4198 13.7685C51.1946 13.957 51.0241 14.2134 50.9083 14.5379C50.7957 14.8623 50.7394 15.2316 50.7394 15.6456C50.7394 16.0597 50.7957 16.4289 50.9083 16.7533C51.0241 17.0778 51.1946 17.3342 51.4198 17.5227C51.6482 17.7081 51.9298 17.8008 52.2645 17.8008Z" fill="white"/>
<path d="M60.3595 19.3303C59.6306 19.3303 59.0002 19.1774 58.4683 18.8715C57.9396 18.5625 57.5313 18.133 57.2435 17.583C56.9557 17.0299 56.8118 16.3887 56.8118 15.6595C56.8118 14.9241 56.9557 14.2814 57.2435 13.7314C57.5313 13.1783 57.9396 12.7488 58.4683 12.4429C59.0002 12.1339 59.6306 11.9795 60.3595 11.9795C61.0884 11.9795 61.7173 12.1339 62.246 12.4429C62.7778 12.7488 63.1876 13.1783 63.4755 13.7314C63.7633 14.2814 63.9072 14.9241 63.9072 15.6595C63.9072 16.3887 63.7633 17.0299 63.4755 17.583C63.1876 18.133 62.7778 18.5625 62.246 18.8715C61.7173 19.1774 61.0884 19.3303 60.3595 19.3303ZM60.3689 17.8008C60.7005 17.8008 60.9774 17.7081 61.1995 17.5227C61.4216 17.3342 61.589 17.0778 61.7016 16.7533C61.8174 16.4289 61.8752 16.0597 61.8752 15.6456C61.8752 15.2316 61.8174 14.8623 61.7016 14.5379C61.589 14.2134 61.4216 13.957 61.1995 13.7685C60.9774 13.58 60.7005 13.4858 60.3689 13.4858C60.0341 13.4858 59.7526 13.58 59.5242 13.7685C59.2989 13.957 59.1284 14.2134 59.0127 14.5379C58.9001 14.8623 58.8437 15.2316 58.8437 15.6456C58.8437 16.0597 58.9001 16.4289 59.0127 16.7533C59.1284 17.0778 59.2989 17.3342 59.5242 17.5227C59.7526 17.7081 60.0341 17.8008 60.3689 17.8008Z" fill="white"/>
<path d="M68.4545 22.0092C67.8069 22.0092 67.2516 21.9212 66.7885 21.7451C66.3287 21.572 65.9626 21.3356 65.6904 21.0359C65.4183 20.7362 65.2415 20.3994 65.1602 20.0255L67.0091 19.7799C67.0654 19.922 67.1546 20.0549 67.2766 20.1785C67.3986 20.3021 67.5597 20.401 67.7599 20.4751C67.9633 20.5524 68.2104 20.591 68.5014 20.591C68.9362 20.591 69.2945 20.4859 69.576 20.2758C69.8607 20.0688 70.0031 19.7212 70.0031 19.233V17.9306H69.9186C69.831 18.1283 69.6996 18.3153 69.5244 18.4914C69.3492 18.6675 69.124 18.8112 68.8486 18.9224C68.5733 19.0337 68.2448 19.0893 67.8632 19.0893C67.3219 19.0893 66.8292 18.9657 66.385 18.7185C65.9438 18.4682 65.5919 18.0866 65.3291 17.5737C65.0694 17.0577 64.9396 16.4057 64.9396 15.6178C64.9396 14.8113 65.0726 14.1377 65.3385 13.597C65.6044 13.0563 65.9579 12.6515 66.399 12.3827C66.8433 12.1139 67.3298 11.9795 67.8585 11.9795C68.2621 11.9795 68.5999 12.0474 68.8721 12.1834C69.1443 12.3163 69.3633 12.4831 69.5291 12.6839C69.698 12.8817 69.8279 13.0764 69.9186 13.2679H69.9937V12.0721H71.9787V19.2608C71.9787 19.8664 71.8285 20.3731 71.5282 20.781C71.2279 21.1889 70.8118 21.4948 70.2799 21.6987C69.7512 21.9057 69.1427 22.0092 68.4545 22.0092ZM68.4967 17.6061C68.8189 17.6061 69.0911 17.5274 69.3132 17.3698C69.5385 17.2091 69.7105 16.9804 69.8294 16.6838C69.9514 16.3841 70.0124 16.0257 70.0124 15.6085C70.0124 15.1914 69.953 14.8299 69.8341 14.524C69.7152 14.215 69.5432 13.9755 69.3179 13.8056C69.0927 13.6356 68.8189 13.5507 68.4967 13.5507C68.1682 13.5507 67.8913 13.6387 67.6661 13.8148C67.4408 13.9879 67.2703 14.2289 67.1546 14.5379C67.0388 14.8469 66.9809 15.2038 66.9809 15.6085C66.9809 16.0195 67.0388 16.3748 67.1546 16.6745C67.2735 16.9712 67.444 17.2014 67.6661 17.3651C67.8913 17.5258 68.1682 17.6061 68.4967 17.6061Z" fill="white"/>
<path d="M75.5686 9.69911V19.1913H73.5695V9.69911H75.5686Z" fill="white"/>
<path d="M80.4549 19.3303C79.7135 19.3303 79.0753 19.182 78.5403 18.8854C78.0085 18.5856 77.5986 18.1623 77.3108 17.6154C77.023 17.0654 76.8791 16.415 76.8791 15.6641C76.8791 14.9318 77.023 14.2891 77.3108 13.7361C77.5986 13.183 78.0038 12.7519 78.5262 12.4429C79.0518 12.1339 79.6681 11.9795 80.3752 11.9795C80.8507 11.9795 81.2934 12.0552 81.7032 12.2066C82.1162 12.3549 82.4759 12.5789 82.7825 12.8786C83.0923 13.1783 83.3331 13.5553 83.5052 14.0095C83.6773 14.4606 83.7633 14.989 83.7633 15.5946V16.1369H77.6768V14.9133H81.8815C81.8815 14.629 81.819 14.3772 81.6938 14.1578C81.5687 13.9384 81.3951 13.767 81.1729 13.6434C80.9539 13.5167 80.699 13.4533 80.408 13.4533C80.1046 13.4533 79.8355 13.5229 79.6009 13.6619C79.3694 13.7979 79.1879 13.9817 79.0565 14.2134C78.9251 14.4421 78.8579 14.697 78.8547 14.9782V16.1415C78.8547 16.4938 78.9204 16.7981 79.0518 17.0546C79.1863 17.3111 79.3756 17.5088 79.6196 17.6479C79.8637 17.7869 80.153 17.8564 80.4878 17.8564C80.7099 17.8564 80.9133 17.8255 81.0978 17.7637C81.2824 17.7019 81.4404 17.6092 81.5718 17.4856C81.7032 17.362 81.8033 17.2106 81.8721 17.0314L83.7211 17.1519C83.6272 17.5907 83.4348 17.9738 83.1439 18.3014C82.8561 18.6258 82.4838 18.8792 82.027 19.0615C81.5734 19.2407 81.0494 19.3303 80.4549 19.3303Z" fill="white"/>
<path d="M88.1639 19.1913V9.69911H91.9557C92.6846 9.69911 93.3056 9.83661 93.8187 10.1116C94.3317 10.3835 94.7228 10.762 94.9918 11.2471C95.264 11.7292 95.4001 12.2854 95.4001 12.9157C95.4001 13.546 95.2625 14.1022 94.9872 14.5842C94.7119 15.0663 94.313 15.4417 93.7905 15.7105C93.2712 15.9793 92.6424 16.1137 91.904 16.1137H89.4873V14.5054H91.5755C91.9666 14.5054 92.2888 14.439 92.5422 14.3061C92.7988 14.1702 92.9896 13.9832 93.1148 13.7453C93.243 13.5043 93.3072 13.2278 93.3072 12.9157C93.3072 12.6005 93.243 12.3255 93.1148 12.0907C92.9896 11.8528 92.7988 11.6689 92.5422 11.5391C92.2857 11.4063 91.9603 11.3398 91.5662 11.3398H90.1959V19.1913H88.1639Z" fill="white"/>
<path d="M98.6815 9.69911V19.1913H96.6824V9.69911H98.6815Z" fill="white"/>
<path d="M102.338 19.3257C101.878 19.3257 101.469 19.2469 101.109 19.0893C100.749 18.9286 100.464 18.6922 100.255 18.3802C100.048 18.065 99.945 17.6726 99.945 17.2029C99.945 16.8074 100.019 16.4752 100.166 16.2064C100.313 15.9376 100.513 15.7213 100.766 15.5575C101.02 15.3938 101.307 15.2702 101.63 15.1868C101.955 15.1033 102.296 15.0446 102.653 15.0106C103.072 14.9674 103.41 14.9272 103.666 14.8901C103.923 14.85 104.109 14.7913 104.225 14.714C104.341 14.6368 104.398 14.5224 104.398 14.371V14.3432C104.398 14.0497 104.305 13.8226 104.117 13.6619C103.932 13.5012 103.669 13.4209 103.328 13.4209C102.969 13.4209 102.682 13.4997 102.47 13.6573C102.257 13.8118 102.116 14.0064 102.047 14.2413L100.198 14.0929C100.292 13.6604 100.477 13.2865 100.752 12.9713C101.027 12.653 101.383 12.4089 101.817 12.239C102.255 12.066 102.762 11.9795 103.338 11.9795C103.738 11.9795 104.122 12.0258 104.488 12.1185C104.857 12.2112 105.184 12.3549 105.468 12.5495C105.756 12.7442 105.983 12.9945 106.149 13.3004C106.315 13.6032 106.398 13.9663 106.398 14.3896V19.1913H104.502V18.204H104.445C104.33 18.4265 104.175 18.6227 103.981 18.7927C103.787 18.9595 103.554 19.0908 103.282 19.1866C103.009 19.2793 102.695 19.3257 102.338 19.3257ZM102.911 17.963C103.205 17.963 103.465 17.9059 103.69 17.7915C103.915 17.6741 104.092 17.5165 104.22 17.3188C104.348 17.121 104.413 16.897 104.413 16.6467V15.8913C104.35 15.9314 104.264 15.9685 104.154 16.0025C104.048 16.0334 103.928 16.0627 103.793 16.0906C103.659 16.1153 103.524 16.1384 103.389 16.1601C103.255 16.1786 103.133 16.1956 103.023 16.2111C102.789 16.245 102.584 16.2991 102.409 16.3733C102.234 16.4474 102.097 16.5479 102 16.6745C101.903 16.7981 101.855 16.9526 101.855 17.138C101.855 17.4068 101.954 17.6123 102.151 17.7545C102.351 17.8935 102.604 17.963 102.911 17.963Z" fill="white"/>
<path d="M108.925 21.8609C108.671 21.8609 108.433 21.8408 108.211 21.8007C107.992 21.7636 107.811 21.7157 107.667 21.657L108.117 20.1831C108.352 20.2542 108.563 20.2928 108.751 20.299C108.942 20.3052 109.106 20.2619 109.244 20.1692C109.384 20.0765 109.499 19.9189 109.586 19.6965L109.704 19.3952L107.118 12.0721H109.22L110.712 17.3002H110.788L112.294 12.0721H114.41L111.609 19.9606C111.474 20.3438 111.291 20.6775 111.06 20.9618C110.831 21.2491 110.542 21.4701 110.192 21.6246C109.841 21.7821 109.419 21.8609 108.925 21.8609Z" fill="white"/>
<mask id="mask0_16_145" style="mask-type:luminance" maskUnits="userSpaceOnUse" x="11" y="8" width="22" height="25">
<path d="M27.3817 17.2961L22.3402 14.3854C22.3402 14.3854 13.1555 9.08201 12.6156 8.77029C12.0757 8.45857 11.5377 8.64744 11.5377 9.29886V32.1755C11.5377 32.6638 11.9222 32.8743 12.3913 32.6037C12.8602 32.3326 22.3402 26.8591 22.3402 26.8591L27.3815 23.9487C27.3815 23.9487 31.659 21.4792 32.2276 21.1511C32.7962 20.8225 32.7415 20.3722 32.2617 20.1138C31.7821 19.8552 27.3817 17.2961 27.3817 17.2961Z" fill="white"/>
</mask>
<g mask="url(#mask0_16_145)">
<path d="M11.5379 8.23828V33.0062L24.0274 20.6223L11.5379 8.23828Z" fill="url(#paint0_linear_16_145)"/>
</g>
<mask id="mask1_16_145" style="mask-type:luminance" maskUnits="userSpaceOnUse" x="11" y="8" width="22" height="25">
<path d="M27.3817 17.2961L22.3402 14.3854C22.3402 14.3854 13.1555 9.08201 12.6156 8.77029C12.0757 8.45857 11.5377 8.64744 11.5377 9.29886V32.1755C11.5377 32.6638 11.9222 32.8743 12.3913 32.6037C12.8602 32.3326 22.3402 26.8591 22.3402 26.8591L27.3815 23.9487C27.3815 23.9487 31.659 21.4792 32.2276 21.1511C32.7962 20.8225 32.7415 20.3722 32.2617 20.1138C31.7821 19.8552 27.3817 17.2961 27.3817 17.2961Z" fill="white"/>
</mask>
<g mask="url(#mask1_16_145)">
<path d="M27.3818 17.296L22.3402 14.3854L11.5379 8.14832V8.23838L24.0274 20.6224L27.3818 17.296Z" fill="url(#paint1_linear_16_145)"/>
</g>
<mask id="mask2_16_145" style="mask-type:luminance" maskUnits="userSpaceOnUse" x="11" y="8" width="22" height="25">
<path d="M27.3817 17.2961L22.3402 14.3854C22.3402 14.3854 13.1555 9.08201 12.6156 8.77029C12.0757 8.45857 11.5377 8.64744 11.5377 9.29886V32.1755C11.5377 32.6638 11.9222 32.8743 12.3913 32.6037C12.8602 32.3326 22.3402 26.8591 22.3402 26.8591L27.3815 23.9487C27.3815 23.9487 31.659 21.4792 32.2276 21.1511C32.7962 20.8225 32.7415 20.3722 32.2617 20.1138C31.7821 19.8552 27.3817 17.2961 27.3817 17.2961Z" fill="white"/>
</mask>
<g mask="url(#mask2_16_145)">
<path d="M11.5379 33.0062V33.0962L22.3402 26.8589L27.3815 23.9483L24.0274 20.6223L11.5379 33.0062Z" fill="url(#paint2_linear_16_145)"/>
</g>
<mask id="mask3_16_145" style="mask-type:luminance" maskUnits="userSpaceOnUse" x="11" y="8" width="22" height="25">
<path d="M27.3817 17.2961L22.3402 14.3854C22.3402 14.3854 13.1555 9.08201 12.6156 8.77029C12.0757 8.45857 11.5377 8.64744 11.5377 9.29886V32.1755C11.5377 32.6638 11.9222 32.8743 12.3913 32.6037C12.8602 32.3326 22.3402 26.8591 22.3402 26.8591L27.3815 23.9487C27.3815 23.9487 31.659 21.4792 32.2276 21.1511C32.7962 20.8225 32.7415 20.3722 32.2617 20.1138C31.7821 19.8552 27.3817 17.2961 27.3817 17.2961Z" fill="white"/>
</mask>
<g mask="url(#mask3_16_145)">
<path d="M27.3818 17.296L24.0274 20.6224L27.3816 23.9484L33.1432 20.6222L27.3818 17.296Z" fill="url(#paint3_linear_16_145)"/>
</g>
<defs>
<linearGradient id="paint0_linear_16_145" x1="17.7826" y1="8.23832" x2="17.7826" y2="33.0062" gradientUnits="userSpaceOnUse">
<stop stop-color="#257CB0"/>
<stop offset="0.286" stop-color="#4A93B5"/>
<stop offset="0.767" stop-color="#78BCBB"/>
<stop offset="1" stop-color="#89CFBD"/>
</linearGradient>
<linearGradient id="paint1_linear_16_145" x1="11.5381" y1="14.3852" x2="27.382" y2="14.3852" gradientUnits="userSpaceOnUse">
<stop stop-color="#52C1AD"/>
<stop offset="1" stop-color="#DEE89A"/>
</linearGradient>
<linearGradient id="paint2_linear_16_145" x1="19.4597" y1="20.6224" x2="19.4597" y2="33.0963" gradientUnits="userSpaceOnUse">
<stop stop-color="#EC413D"/>
<stop offset="0.167" stop-color="#DA4452"/>
<stop offset="0.575" stop-color="#B0487A"/>
<stop offset="0.862" stop-color="#954A92"/>
<stop offset="1" stop-color="#8A4A9D"/>
</linearGradient>
<linearGradient id="paint3_linear_16_145" x1="28.5854" y1="17.2961" x2="28.5854" y2="23.9482" gradientUnits="userSpaceOnUse">
<stop stop-color="#F58879"/>
<stop offset="0.119" stop-color="#F69079"/>
<stop offset="0.713" stop-color="#FCB877"/>
<stop offset="1" stop-color="#FEC874"/>
</linearGradient>
</defs>
</svg>
