<svg width="135" height="40" viewBox="0 0 135 40" fill="none" xmlns="http://www.w3.org/2000/svg">
<path d="M7.73609 38.23H7.10999C7.02458 38.2286 6.93895 38.2265 6.85141 38.2235L6.84395 38.2233L6.83647 38.2231C6.28836 38.2129 5.68696 38.1822 5.11291 38.0742L5.10541 38.0728L5.09789 38.0715C4.58108 37.9824 4.12261 37.8268 3.7012 37.6118L3.70122 37.6118L3.69385 37.6081C3.27236 37.3974 2.88005 37.1098 2.54747 36.7743L2.54441 36.7713C2.19906 36.426 1.91726 36.0424 1.6992 35.6092L1.69666 35.6042C1.485 35.1896 1.33637 34.7434 1.23493 34.197C1.12597 33.5985 1.09546 32.9736 1.08522 32.4684L1.08493 32.4543L1.08426 32.4403C1.08019 32.3562 1.0775 32.1474 1.07613 31.9357C1.07548 31.835 1.07516 31.7409 1.07499 31.6718L1.07485 31.5898L1.07483 31.5674L1.07483 31.5617L1.07483 31.5603V31.56V31.5599V7.66708L1.07484 7.66665L1.07517 7.64394L1.07638 7.56148L1.08004 7.29709C1.08258 7.10448 1.08526 6.87821 1.08542 6.76239C1.09588 6.24705 1.12681 5.62735 1.23471 5.04483L1.23472 5.04483L1.23548 5.04065C1.33196 4.50708 1.48211 4.05657 1.69679 3.62565C1.92574 3.18731 2.20777 2.796 2.53427 2.47239L2.53428 2.4724L2.53734 2.46934C2.88575 2.121 3.27848 1.83205 3.69252 1.62787L3.70217 1.62311L3.7117 1.61815C4.13227 1.3994 4.58354 1.25235 5.10334 1.1617L5.10335 1.16173L5.11085 1.16036C5.70812 1.05151 6.33199 1.02082 6.84767 1.01048L7.74546 1H127.322H127.328L128.237 1.01039C128.238 1.01042 128.24 1.01045 128.241 1.01048C128.747 1.02083 129.369 1.05158 129.954 1.15986L129.954 1.15993L129.966 1.16203C130.494 1.25295 130.948 1.40021 131.367 1.61815L131.374 1.62187L131.381 1.62546C131.802 1.83597 132.192 2.12219 132.521 2.46017L132.53 2.4694L132.54 2.47839C132.871 2.80111 133.155 3.19151 133.391 3.64044C133.6 4.05197 133.745 4.49974 133.825 5.00721L133.828 5.02517L133.831 5.04302C133.938 5.59335 133.969 6.17968 133.99 6.79685L133.99 6.80009C134 7.06034 134 7.35151 134 7.65955V7.66174V7.66394V7.66613V7.66832V7.67052V7.67271V7.6749V7.67709V7.67928V7.68148V7.68367V7.68586V7.68805V7.69024V7.69243V7.69462V7.69681V7.699V7.70119V7.70338V7.70557V7.70776V7.70995V7.71214V7.71433V7.71652V7.71871V7.7209V7.72309V7.72528V7.72747V7.72965V7.73184V7.73403V7.73622V7.73841V7.74059V7.74278V7.74497V7.74716V7.74934V7.75153V7.75372V7.7559V7.75809V7.76027V7.76246V7.76465V7.76683V7.76902V7.7712V7.77339V7.77557V7.77776V7.77994V7.78213V7.78431V7.7865V7.78868V7.79086V7.79305V7.79523V7.79742V7.7996V7.80178V7.80396V7.80615V7.80833V7.81051V7.8127V7.81488V7.81706V7.81924V7.82142V7.82361V7.82579V7.82797V7.83015V7.83233V7.83451V7.83669V7.83887V7.84105V7.84323V7.84541V7.84759V7.84977V7.85195V7.85413V7.85631V7.85849V7.86067V7.86285V7.86503V7.86721V7.86939V7.87157V7.87374V7.87592V7.8781V7.88028V7.88246V7.88463V7.88681V7.88899V7.89116V7.89334V7.89552V7.8977V7.89987V7.90205V7.90422V7.9064V7.90858V7.91075V7.91293V7.9151V7.91728V7.91945V7.92163V7.9238V7.92598V7.92815V7.93033V7.9325V7.93468V7.93685V7.93903V7.9412V7.94337V7.94555V7.94772V7.94989V7.95207V7.95424V7.95641V7.95858V7.96076V7.96293V7.9651V7.96727V7.96945V7.97162V7.97379V7.97596V7.97813V7.9803V7.98248V7.98465V7.98682V7.98899V7.99116V7.99333V7.9955V7.99767V7.99984V8.00201V8.00418V8.00635V8.00852V8.01069V8.01286V8.01503V8.0172V8.01936V8.02153V8.0237V8.02587V8.02804V8.03021V8.03237V8.03454V8.03671V8.03888V8.04105V8.04321V8.04538V8.04755V8.04971V8.05188V8.05405V8.05621V8.05838V8.06055V8.06271V8.06488V8.06705V8.06921V8.07138V8.07354V8.07571V8.07787V8.08004V8.0822V8.08437V8.08653V8.0887V8.09086V8.09303V8.09519V8.09735V8.09952V8.10168V8.10385V8.10601V8.10817V8.11034V8.1125V8.11466V8.11682V8.11899V8.12115V8.12331V8.12547V8.12764V8.1298V8.13196V8.13412V8.13628V8.13845V8.14061V8.14277V8.14493V8.14709V8.14925V8.15141V8.15357V8.15574V8.1579V8.16006V8.16222V8.16438V8.16654V8.1687V8.17086V8.17302V8.17517V8.17733V8.17949V8.18165V8.18381V8.18597V8.18813V8.19029V8.19245V8.1946V8.19676V8.19892V8.20108V8.20324V8.20539V8.20755V8.20971V8.21187V8.21402V8.21618V8.21834V8.2205V8.22265V8.22481V8.22697V8.22912V8.23128V8.23343V8.23559V8.23775V8.2399V8.24206V8.24421V8.24637V8.24852V8.25068V8.25284V8.25499V8.25714V8.2593V8.26145V8.26361V8.26576V8.26792V8.27007V8.27223V8.27438V8.27653V8.27869V8.28084V8.28299V8.28515V8.2873V8.28945V8.29161V8.29376V8.29591V8.29807V8.30022V8.30237V8.30452V8.30667V8.30883V8.31098V8.31313V8.31528V8.31743V8.31958V8.32174V8.32389V8.32604V8.32819V8.33034V8.33249V8.33464V8.33679V8.33894V8.34109V8.34324V8.3454V8.34754V8.34969V8.35184V8.35399V8.35614V8.35829V8.36044V8.36259V8.36474V8.36689V8.36904V8.37119V8.37334V8.37549V8.37763V8.37978V8.38193V8.38408V8.38623V8.38837V8.39052V8.39267V8.39482V8.39697V8.39911V8.40126V8.40341V8.40555V8.4077V8.40985V8.41199V8.41414V8.41629V8.41843V8.42058V8.42273V8.42487V8.42702V8.42916V8.43131V8.43346V8.4356V8.43775V8.43989V8.44204V8.44418V8.44633V8.44847V8.45062V8.45276V8.45491V8.45705V8.4592V8.46134V8.46349V8.46563V8.46777V8.46992V8.47206V8.47421V8.47635V8.47849V8.48064V8.48278V8.48492V8.48707V8.48921V8.49135V8.49349V8.49564V8.49778V8.49992V8.50206V8.50421V8.50635V8.50849V8.51063V8.51278V8.51492V8.51706V8.5192V8.52134V8.52348V8.52562V8.52777V8.52991V8.53205V8.53419V8.53633V8.53847V8.54061V8.54275V8.54489V8.54703V8.54917V8.55131V8.55345V8.55559V8.55773V8.55987V8.56201V8.56415V8.56629V8.56843V8.57057V8.57271V8.57485V8.57699V8.57913V8.58126V8.5834V8.58554V8.58768V8.58982V8.59196V8.5941V8.59623V8.59837V8.60051V8.60265V8.60479V8.60692V8.60906V8.6112V8.61334V8.61547V8.61761V8.61975V8.62188V8.62402V8.62616V8.62829V8.63043V8.63257V8.63471V8.63684V8.63898V8.64111V8.64325V8.64539V8.64752V8.64966V8.65179V8.65393V8.65606V8.6582V8.66034V8.66247V8.66461V8.66674V8.66888V8.67101V8.67315V8.67528V8.67742V8.67955V8.68169V8.68382V8.68595V8.68809V8.69022V8.69236V8.69449V8.69662V8.69876V8.70089V8.70303V8.70516V8.70729V8.70943V8.71156V8.71369V8.71583V8.71796V8.72009V8.72223V8.72436V8.72649V8.72862V8.73076V8.73289V8.73502V8.73715V8.73929V8.74142V8.74355V8.74568V8.74781V8.74995V8.75208V8.75421V8.75634V8.75847V8.7606V8.76274V8.76487V30.4652V30.4673V30.4694V30.4716V30.4737V30.4758V30.478V30.4801V30.4822V30.4843V30.4865V30.4886V30.4907V30.4929V30.495V30.4971V30.4993V30.5014V30.5035V30.5057V30.5078V30.5099V30.5121V30.5142V30.5163V30.5185V30.5206V30.5227V30.5249V30.527V30.5291V30.5313V30.5334V30.5355V30.5377V30.5398V30.5419V30.5441V30.5462V30.5483V30.5505V30.5526V30.5547V30.5569V30.559V30.5611V30.5633V30.5654V30.5675V30.5697V30.5718V30.574V30.5761V30.5782V30.5804V30.5825V30.5846V30.5868V30.5889V30.591V30.5932V30.5953V30.5974V30.5996V30.6017V30.6038V30.606V30.6081V30.6103V30.6124V30.6145V30.6167V30.6188V30.6209V30.6231V30.6252V30.6273V30.6295V30.6316V30.6338V30.6359V30.638V30.6402V30.6423V30.6444V30.6466V30.6487V30.6509V30.653V30.6551V30.6573V30.6594V30.6615V30.6637V30.6658V30.6679V30.6701V30.6722V30.6744V30.6765V30.6786V30.6808V30.6829V30.6851V30.6872V30.6893V30.6915V30.6936V30.6957V30.6979V30.7V30.7022V30.7043V30.7064V30.7086V30.7107V30.7128V30.715V30.7171V30.7193V30.7214V30.7235V30.7257V30.7278V30.73V30.7321V30.7342V30.7364V30.7385V30.7407V30.7428V30.7449V30.7471V30.7492V30.7513V30.7535V30.7556V30.7578V30.7599V30.762V30.7642V30.7663V30.7685V30.7706V30.7727V30.7749V30.777V30.7792V30.7813V30.7834V30.7856V30.7877V30.7899V30.792V30.7941V30.7963V30.7984V30.8006V30.8027V30.8048V30.807V30.8091V30.8113V30.8134V30.8155V30.8177V30.8198V30.822V30.8241V30.8262V30.8284V30.8305V30.8327V30.8348V30.8369V30.8391V30.8412V30.8434V30.8455V30.8476V30.8498V30.8519V30.8541V30.8562V30.8583V30.8605V30.8626V30.8648V30.8669V30.8691V30.8712V30.8733V30.8755V30.8776V30.8798V30.8819V30.884V30.8862V30.8883V30.8905V30.8926V30.8947V30.8969V30.899V30.9012V30.9033V30.9055V30.9076V30.9097V30.9119V30.914V30.9162V30.9183V30.9204V30.9226V30.9247V30.9269V30.929V30.9311V30.9333V30.9354V30.9376V30.9397V30.9419V30.944V30.9461V30.9483V30.9504V30.9526V30.9547V30.9568V30.959V30.9611V30.9633V30.9654V30.9676V30.9697V30.9718V30.974V30.9761V30.9783V30.9804V30.9825V30.9847V30.9868V30.989V30.9911V30.9932V30.9954V30.9975V30.9997V31.0018V31.004V31.0061V31.0082V31.0104V31.0125V31.0147V31.0168V31.0189V31.0211V31.0232V31.0254V31.0275V31.0297V31.0318V31.0339V31.0361V31.0382V31.0404V31.0425V31.0446V31.0468V31.0489V31.0511V31.0532V31.0554V31.0575V31.0596V31.0618V31.0639V31.0661V31.0682V31.0703V31.0725V31.0746V31.0768V31.0789V31.0811V31.0832V31.0853V31.0875V31.0896V31.0918V31.0939V31.096V31.0982V31.1003V31.1025V31.1046V31.1067V31.1089V31.111V31.1132V31.1153V31.1175V31.1196V31.1217V31.1239V31.126V31.1282V31.1303V31.1324V31.1346V31.1367V31.1389V31.141V31.1431V31.1453V31.1474V31.1496V31.1517V31.1539V31.156V31.1581V31.1603V31.1624V31.1646V31.1667V31.1688V31.171V31.1731V31.1753V31.1774V31.1795V31.1817V31.1838V31.186V31.1881V31.1902V31.1924V31.1945V31.1967V31.1988V31.2009V31.2031V31.2052V31.2074V31.2095V31.2116V31.2138V31.2159V31.2181V31.2202V31.2223V31.2245V31.2266V31.2288V31.2309V31.233V31.2352V31.2373V31.2395V31.2416V31.2437V31.2459V31.248V31.2502V31.2523V31.2544V31.2566V31.2587V31.2609V31.263V31.2651V31.2673V31.2694V31.2716V31.2737V31.2758V31.278V31.2801V31.2823V31.2844V31.2865V31.2887V31.2908V31.293V31.2951V31.2972V31.2994V31.3015V31.3036V31.3058V31.3079V31.3101V31.3122V31.3143V31.3165V31.3186V31.3208V31.3229V31.325V31.3272V31.3293V31.3314V31.3336V31.3357V31.3379V31.34V31.3421V31.3443V31.3464V31.3485V31.3507V31.3528V31.355V31.3571V31.3592V31.3614V31.3635V31.3656V31.3678V31.3699V31.3721V31.3742V31.3763V31.3785V31.3806V31.3827V31.3849V31.387V31.3892V31.3913V31.3934V31.3956V31.3977V31.3998V31.402V31.4041V31.4062V31.4084V31.4105V31.4127V31.4148V31.4169V31.4191V31.4212V31.4233V31.4255V31.4276V31.4297V31.4319V31.434V31.4361V31.4383V31.4404V31.4426V31.4447V31.4468V31.449V31.4511V31.4532V31.4554V31.4575V31.4596V31.4618V31.4639V31.466V31.4682V31.4703V31.4724V31.4746V31.4767V31.4788V31.481V31.4831V31.4852V31.4874V31.4895V31.4916V31.4938V31.4959V31.498V31.5002V31.5023V31.5044V31.5066V31.5087V31.5108V31.513V31.5151V31.5172V31.5194V31.5215V31.5236V31.5258V31.5279V31.53V31.5322V31.5343V31.5364V31.5386V31.5407V31.5428V31.545V31.5471V31.5492V31.5514V31.5535V31.5556V31.5578V31.5599C134 31.8873 134 32.1708 133.99 32.4655C133.969 33.0591 133.938 33.6524 133.84 34.1864L133.837 34.2002C133.747 34.7331 133.601 35.1761 133.382 35.5972L133.378 35.6045C133.153 36.0451 132.873 36.428 132.541 36.7576L132.537 36.7607C132.197 37.1014 131.801 37.3868 131.368 37.6094L131.363 37.6119C130.95 37.8269 130.509 37.9667 129.95 38.0702L129.945 38.0713C129.384 38.1786 128.784 38.2093 128.225 38.2196L128.216 38.2198L128.207 38.2201C127.935 38.2299 127.643 38.23 127.335 38.23H126.24H7.73609ZM131.828 0.730992C132.351 0.992313 132.831 1.34545 133.237 1.76215C133.654 2.16826 134 2.64853 134.279 3.18177C134.541 3.69381 134.717 4.24471 134.813 4.8521L131.828 0.730992ZM135 31.5599C135 31.8848 135 32.1849 134.989 32.4992V6.76258C135 7.04509 135 7.35585 135 7.65955V8.76487V30.4652V31.5599Z" fill="black" stroke="#A6A6A6" stroke-width="2"/>
<path d="M26.0313 6.69836H14.3198C8.79561 6.69836 6.77324 8.7098 6.77324 14.234V25.9455C6.77324 31.4696 8.79561 33.492 14.3198 33.492H26.0313C31.5445 33.492 33.5669 31.4696 33.5669 25.9455V14.234C33.5669 8.7098 31.5555 6.69836 26.0313 6.69836Z" fill="#C8102E"/>
<path fill-rule="evenodd" clip-rule="evenodd" d="M18.7473 25.1124L18.4343 25.7764H17.7378L19.2222 22.5569H19.8237L21.308 25.7764H20.5905L20.288 25.1124H18.7473ZM18.9936 24.5288H20.0312L19.5106 23.3785L18.9936 24.5288ZM30.0102 22.5569H30.6961V25.7764H30.0102V22.5569ZM27.3194 25.1928H29.2012V25.7764H26.644V22.5569H29.1274V23.1505H27.3194V23.8044H28.5681V24.398H27.3194V25.1928ZM25.3742 22.5569H26.0918L24.917 25.7864H24.3366L23.5663 23.6669L22.7959 25.7864H22.2331L21.0478 22.5569H21.7864L22.5356 24.777L23.2954 22.5569H23.8582L24.6285 24.777L25.3742 22.5569ZM16.7002 22.5569H17.3861V24.3813C17.3861 25.3035 16.8549 25.8368 15.9193 25.8368C15.0048 25.8368 14.4736 25.3102 14.4736 24.4014V22.5602H15.1595V24.3846C15.1595 24.9279 15.4304 25.2163 15.9299 25.2163C16.4293 25.2163 16.7002 24.9279 16.7002 24.4047V22.5569ZM12.8345 22.5569H13.5204V25.7864H12.8345V24.4685H11.2868V25.7864H10.6009V22.5569H11.2868V23.8547H12.8345V22.5569ZM20.6468 18.4553C18.2655 18.4553 16.3449 16.6141 16.3449 14.3538H16.9464C16.9464 16.2955 18.6102 17.8718 20.6468 17.8718C22.6834 17.8718 24.3471 16.2955 24.3471 14.3538H24.9486C24.9486 16.6108 23.0175 18.4553 20.6468 18.4553Z" fill="white"/>
<path d="M38.425 23.2746V31.1769H37.5498V23.2746H38.425ZM37.9874 22.2869C37.8251 22.2869 37.6851 22.2264 37.5675 22.1055C37.4522 21.9846 37.3946 21.8393 37.3946 21.6695C37.3946 21.4997 37.4522 21.3544 37.5675 21.2335C37.6851 21.1126 37.8251 21.0521 37.9874 21.0521C38.1497 21.0521 38.2885 21.1126 38.4038 21.2335C38.5214 21.3544 38.5802 21.4997 38.5802 21.6695C38.5802 21.8393 38.5214 21.9846 38.4038 22.1055C38.2885 22.2264 38.1497 22.2869 37.9874 22.2869Z" fill="white"/>
<path d="M40.8995 23.2746V31.1769H40.0667V23.2746H40.8995Z" fill="white"/>
<path d="M44.6973 31.3004C44.175 31.3004 43.7245 31.1743 43.3458 30.9223C42.9694 30.6676 42.6789 30.3126 42.4742 29.8573C42.2719 29.3994 42.1707 28.8669 42.1707 28.2599C42.1707 27.6528 42.2719 27.1177 42.4742 26.6547C42.6789 26.1891 42.9635 25.8264 43.3281 25.5666C43.6951 25.3042 44.1233 25.173 44.6126 25.173C44.8949 25.173 45.1737 25.2245 45.4489 25.3274C45.7242 25.4303 45.9747 25.5975 46.2005 25.829C46.4264 26.0579 46.6064 26.3615 46.7404 26.7396C46.8745 27.1177 46.9416 27.5833 46.9416 28.1364V28.5222H42.7635V27.7351H46.0947C46.0947 27.4007 46.0335 27.1023 45.9112 26.8399C45.7912 26.5775 45.6195 26.3705 45.396 26.2187C45.1749 26.0669 44.9137 25.991 44.6126 25.991C44.2809 25.991 43.9939 26.0811 43.7516 26.2611C43.5116 26.4386 43.327 26.6701 43.1976 26.9557C43.0682 27.2412 43.0035 27.5473 43.0035 27.874V28.3988C43.0035 28.8464 43.0741 29.2258 43.2152 29.537C43.3587 29.8457 43.5575 30.0811 43.8116 30.2431C44.0657 30.4026 44.3609 30.4824 44.6973 30.4824C44.9161 30.4824 45.1137 30.4489 45.2901 30.3821C45.4689 30.3126 45.623 30.2097 45.7524 30.0734C45.8818 29.9345 45.9818 29.7621 46.0523 29.5563L46.8569 29.8033C46.7722 30.1017 46.6299 30.364 46.4299 30.5904C46.23 30.8142 45.9829 30.9891 45.6889 31.1152C45.3948 31.2387 45.0643 31.3004 44.6973 31.3004Z" fill="white"/>
<path d="M51.1161 31.1769V23.2746H51.9912V27.1949H52.0759L55.3224 23.2746H56.4657L53.431 26.8399L56.4657 31.1769H55.4071L52.8946 27.5036L51.9912 28.6148V31.1769H51.1161Z" fill="white"/>
<path d="M59.3601 31.3004C58.8379 31.3004 58.3874 31.1743 58.0086 30.9223C57.6322 30.6676 57.3417 30.3126 57.137 29.8573C56.9347 29.3994 56.8335 28.8669 56.8335 28.2599C56.8335 27.6528 56.9347 27.1177 57.137 26.6547C57.3417 26.1891 57.6263 25.8264 57.991 25.5666C58.358 25.3042 58.7861 25.173 59.2754 25.173C59.5577 25.173 59.8365 25.2245 60.1118 25.3274C60.387 25.4303 60.6375 25.5975 60.8634 25.829C61.0892 26.0579 61.2692 26.3615 61.4033 26.7396C61.5374 27.1177 61.6044 27.5833 61.6044 28.1364V28.5222H57.4264V27.7351H60.7575C60.7575 27.4007 60.6963 27.1023 60.574 26.8399C60.454 26.5775 60.2823 26.3705 60.0588 26.2187C59.8377 26.0669 59.5766 25.991 59.2754 25.991C58.9437 25.991 58.6567 26.0811 58.4144 26.2611C58.1745 26.4386 57.9898 26.6701 57.8604 26.9557C57.731 27.2412 57.6663 27.5473 57.6663 27.874V28.3988C57.6663 28.8464 57.7369 29.2258 57.8781 29.537C58.0216 29.8457 58.2203 30.0811 58.4744 30.2431C58.7285 30.4026 59.0237 30.4824 59.3601 30.4824C59.5789 30.4824 59.7765 30.4489 59.953 30.3821C60.1317 30.3126 60.2858 30.2097 60.4152 30.0734C60.5446 29.9345 60.6446 29.7621 60.7152 29.5563L61.5197 29.8033C61.435 30.1017 61.2927 30.364 61.0927 30.5904C60.8928 30.8142 60.6458 30.9891 60.3517 31.1152C60.0576 31.2387 59.7271 31.3004 59.3601 31.3004Z" fill="white"/>
<path d="M66.7105 26.5775L65.9624 26.8091C65.9154 26.6727 65.846 26.5402 65.7542 26.4116C65.6648 26.2804 65.5425 26.1724 65.3872 26.0875C65.232 26.0026 65.0332 25.9602 64.7909 25.9602C64.4592 25.9602 64.1827 26.0438 63.9616 26.211C63.7428 26.3756 63.6334 26.5853 63.6334 26.8399C63.6334 27.0663 63.7087 27.2451 63.8593 27.3763C64.0098 27.5074 64.2451 27.6168 64.565 27.7042L65.3696 27.9203C65.8542 28.0489 66.2153 28.2457 66.4529 28.5107C66.6905 28.773 66.8093 29.1113 66.8093 29.5255C66.8093 29.865 66.7199 30.1686 66.5411 30.4361C66.3647 30.7036 66.1177 30.9145 65.8001 31.0689C65.4825 31.2232 65.1132 31.3004 64.6921 31.3004C64.1392 31.3004 63.6817 31.1692 63.3194 30.9068C62.9571 30.6444 62.7277 30.2612 62.6313 29.757L63.4217 29.5409C63.497 29.8599 63.6393 30.0991 63.8487 30.2586C64.0604 30.4181 64.3368 30.4978 64.678 30.4978C65.0661 30.4978 65.3743 30.4078 65.6025 30.2277C65.833 30.0451 65.9483 29.8264 65.9483 29.5718C65.9483 29.366 65.8824 29.1936 65.7507 29.0547C65.6189 28.9132 65.4166 28.8078 65.1437 28.7383L64.2404 28.5068C63.744 28.3782 63.3794 28.1788 63.1465 27.9087C62.9159 27.6361 62.8007 27.2952 62.8007 26.8862C62.8007 26.5518 62.8865 26.256 63.0583 25.9988C63.2323 25.7415 63.4688 25.5396 63.7675 25.393C64.0687 25.2463 64.4098 25.173 64.7909 25.173C65.3272 25.173 65.7483 25.3017 66.0542 25.5589C66.3623 25.8161 66.5811 26.1557 66.7105 26.5775ZM64.3815 31.146H65.0732L65.0167 31.4547C65.2002 31.4856 65.3684 31.5692 65.5213 31.7055C65.6742 31.8444 65.7507 32.0644 65.7507 32.3653C65.7507 32.6972 65.6248 32.9673 65.3731 33.1756C65.1237 33.3866 64.7556 33.492 64.2686 33.492L64.2404 32.8901C64.4592 32.8901 64.6403 32.8515 64.7838 32.7743C64.9297 32.6997 65.0026 32.5737 65.0026 32.3962C65.0026 32.2187 64.9426 32.0978 64.8226 32.0335C64.7027 31.9692 64.5086 31.9255 64.2404 31.9023L64.3815 31.146Z" fill="white"/>
<path d="M70.4766 25.2502V26.0219H67.5548V25.2502H70.4766ZM68.4299 31.1769V24.4322C68.4299 24.0926 68.5028 23.8097 68.6487 23.5833C68.7945 23.357 68.9839 23.1872 69.2168 23.074C69.4497 22.9608 69.6955 22.9042 69.9543 22.9042C70.159 22.9042 70.326 22.9222 70.4554 22.9582C70.5848 22.9943 70.6812 23.0277 70.7448 23.0586L70.5048 23.8457C70.4625 23.8303 70.4036 23.811 70.3284 23.7878C70.2554 23.7647 70.159 23.7531 70.039 23.7531C69.7638 23.7531 69.565 23.829 69.4426 23.9808C69.3227 24.1325 69.2627 24.355 69.2627 24.6483V31.1769H68.4299Z" fill="white"/>
<path d="M73.693 31.3004C73.1708 31.3004 72.7203 31.1743 72.3415 30.9223C71.9651 30.6676 71.6746 30.3126 71.4699 29.8573C71.2676 29.3994 71.1664 28.8669 71.1664 28.2599C71.1664 27.6528 71.2676 27.1177 71.4699 26.6547C71.6746 26.1891 71.9592 25.8264 72.3239 25.5666C72.6909 25.3042 73.119 25.173 73.6083 25.173C73.8906 25.173 74.1694 25.2245 74.4446 25.3274C74.7199 25.4303 74.9704 25.5975 75.1963 25.829C75.4221 26.0579 75.6021 26.3615 75.7362 26.7396C75.8703 27.1177 75.9373 27.5833 75.9373 28.1364V28.5222H71.7593V27.7351H75.0904C75.0904 27.4007 75.0292 27.1023 74.9069 26.8399C74.7869 26.5775 74.6152 26.3705 74.3917 26.2187C74.1706 26.0669 73.9094 25.991 73.6083 25.991C73.2766 25.991 72.9896 26.0811 72.7473 26.2611C72.5074 26.4386 72.3227 26.6701 72.1933 26.9557C72.0639 27.2412 71.9992 27.5473 71.9992 27.874V28.3988C71.9992 28.8464 72.0698 29.2258 72.2109 29.537C72.3544 29.8457 72.5532 30.0811 72.8073 30.2431C73.0614 30.4026 73.3566 30.4824 73.693 30.4824C73.9118 30.4824 74.1094 30.4489 74.2858 30.3821C74.4646 30.3126 74.6187 30.2097 74.7481 30.0734C74.8775 29.9345 74.9775 29.7621 75.0481 29.5563L75.8526 29.8033C75.7679 30.1017 75.6256 30.364 75.4256 30.5904C75.2257 30.8142 74.9787 30.9891 74.6846 31.1152C74.3905 31.2387 74.06 31.3004 73.693 31.3004Z" fill="white"/>
<path d="M79.2508 31.3004C78.7991 31.3004 78.4004 31.1756 78.0546 30.9261C77.7087 30.674 77.4382 30.319 77.2429 29.8612C77.0477 29.4007 76.9501 28.8567 76.9501 28.229C76.9501 27.6065 77.0477 27.0663 77.2429 26.6084C77.4382 26.1505 77.7099 25.7968 78.0581 25.5473C78.4062 25.2978 78.8085 25.173 79.2649 25.173C79.6178 25.173 79.8966 25.2373 80.1012 25.366C80.3082 25.492 80.4659 25.6361 80.5741 25.7981C80.6846 25.9576 80.7705 26.0888 80.8317 26.1917H80.9023V23.2746H81.735V31.1769H80.9305V30.2663H80.8317C80.7705 30.3743 80.6835 30.5107 80.5705 30.6753C80.4576 30.8374 80.2965 30.9827 80.0871 31.1113C79.8777 31.2374 79.599 31.3004 79.2508 31.3004ZM79.3637 30.4824C79.6978 30.4824 79.9801 30.3872 80.2106 30.1968C80.4412 30.0039 80.6164 29.7377 80.7364 29.3981C80.8564 29.056 80.9164 28.6612 80.9164 28.2136C80.9164 27.7711 80.8576 27.384 80.7399 27.0521C80.6223 26.7177 80.4482 26.4579 80.2177 26.2727C79.9871 26.0849 79.7025 25.991 79.3637 25.991C79.0108 25.991 78.7168 26.0901 78.4815 26.2882C78.2486 26.4837 78.0734 26.7499 77.9557 27.0869C77.8405 27.4213 77.7828 27.7968 77.7828 28.2136C77.7828 28.6354 77.8416 29.0187 77.9593 29.3634C78.0793 29.7055 78.2557 29.9782 78.4886 30.1814C78.7238 30.3821 79.0155 30.4824 79.3637 30.4824Z" fill="white"/>
<path d="M83.3759 31.1769V25.2502H84.2087V31.1769H83.3759ZM83.7994 24.2624C83.637 24.2624 83.4971 24.202 83.3794 24.0811C83.2642 23.9602 83.2065 23.8148 83.2065 23.6451C83.2065 23.4753 83.2642 23.3299 83.3794 23.209C83.4971 23.0881 83.637 23.0277 83.7994 23.0277C83.9617 23.0277 84.1005 23.0881 84.2157 23.209C84.3334 23.3299 84.3922 23.4753 84.3922 23.6451C84.3922 23.8148 84.3334 23.9602 84.2157 24.0811C84.1005 24.202 83.9617 24.2624 83.7994 24.2624Z" fill="white"/>
<path d="M86.5668 27.6116V31.1769H85.734V25.2502H86.5385V26.1763H86.6091C86.7361 25.8753 86.9291 25.6335 87.1878 25.4509C87.4466 25.2656 87.7807 25.173 88.19 25.173C88.557 25.173 88.8781 25.2554 89.1533 25.42C89.4286 25.582 89.6427 25.829 89.7956 26.1608C89.9485 26.4901 90.0249 26.9068 90.0249 27.411V31.1769H89.1922V27.4727C89.1922 27.0071 89.0816 26.6444 88.8605 26.3846C88.6393 26.1222 88.3358 25.991 87.95 25.991C87.6842 25.991 87.4466 26.0541 87.2372 26.1801C87.0302 26.3062 86.8667 26.4901 86.7467 26.7319C86.6268 26.9737 86.5668 27.2669 86.5668 27.6116Z" fill="white"/>
<path d="M39.5861 19.3072H37.3946L40.7338 9.70056H43.3693L46.7039 19.3072H44.5123L42.0894 11.8958H42.0138L39.5861 19.3072ZM39.4491 15.5312H44.6257V17.1167H39.4491V15.5312Z" fill="white"/>
<path d="M47.8303 22.0091V12.1022H49.814V13.3124H49.9038C49.9919 13.1186 50.1195 12.9215 50.2864 12.7214C50.4564 12.5181 50.6768 12.3493 50.9476 12.2148C51.2215 12.0772 51.5616 12.0084 51.9678 12.0084C52.4968 12.0084 52.9848 12.146 53.432 12.4212C53.8791 12.6933 54.2365 13.1045 54.5041 13.6549C54.7718 14.2021 54.9056 14.8885 54.9056 15.7141C54.9056 16.5178 54.7749 17.1964 54.5136 17.7499C54.2554 18.3003 53.9027 18.7178 53.4556 19.0023C53.0116 19.2838 52.5141 19.4245 51.9631 19.4245C51.5726 19.4245 51.2404 19.3604 50.9665 19.2322C50.6957 19.104 50.4737 18.9429 50.3005 18.749C50.1273 18.552 49.9951 18.3535 49.9038 18.1533H49.8424V22.0091H47.8303ZM49.7999 15.7047C49.7999 16.1332 49.8597 16.5069 49.9793 16.8258C50.099 17.1448 50.2722 17.3934 50.4989 17.5717C50.7256 17.7468 51.0011 17.8343 51.3254 17.8343C51.6529 17.8343 51.93 17.7452 52.1567 17.567C52.3834 17.3856 52.555 17.1354 52.6715 16.8164C52.7912 16.4943 52.851 16.1238 52.851 15.7047C52.851 15.2888 52.7928 14.9229 52.6763 14.6071C52.5598 14.2913 52.3881 14.0442 52.1614 13.866C51.9347 13.6877 51.6561 13.5986 51.3254 13.5986C50.998 13.5986 50.7209 13.6846 50.4942 13.8566C50.2706 14.0286 50.099 14.2725 49.9793 14.5883C49.8597 14.9042 49.7999 15.2763 49.7999 15.7047Z" fill="white"/>
<path d="M56.2469 22.0091V12.1022H58.2307V13.3124H58.3204C58.4086 13.1186 58.5361 12.9215 58.703 12.7214C58.873 12.5181 59.0934 12.3493 59.3642 12.2148C59.6382 12.0772 59.9782 12.0084 60.3844 12.0084C60.9134 12.0084 61.4015 12.146 61.8486 12.4212C62.2957 12.6933 62.6531 13.1045 62.9207 13.6549C63.1884 14.2021 63.3222 14.8885 63.3222 15.7141C63.3222 16.5178 63.1915 17.1964 62.9302 17.7499C62.672 18.3003 62.3193 18.7178 61.8722 19.0023C61.4282 19.2838 60.9307 19.4245 60.3797 19.4245C59.9892 19.4245 59.657 19.3604 59.3831 19.2322C59.1123 19.104 58.8903 18.9429 58.7171 18.749C58.544 18.552 58.4117 18.3535 58.3204 18.1533H58.259V22.0091H56.2469ZM58.2165 15.7047C58.2165 16.1332 58.2763 16.5069 58.396 16.8258C58.5156 17.1448 58.6888 17.3934 58.9155 17.5717C59.1422 17.7468 59.4177 17.8343 59.7421 17.8343C60.0695 17.8343 60.3466 17.7452 60.5733 17.567C60.8 17.3856 60.9716 17.1354 61.0882 16.8164C61.2078 16.4943 61.2676 16.1238 61.2676 15.7047C61.2676 15.2888 61.2094 14.9229 61.0929 14.6071C60.9764 14.2913 60.8048 14.0442 60.5781 13.866C60.3513 13.6877 60.0727 13.5986 59.7421 13.5986C59.4146 13.5986 59.1375 13.6846 58.9108 13.8566C58.6872 14.0286 58.5156 14.2725 58.396 14.5883C58.2763 14.9042 58.2165 15.2763 58.2165 15.7047Z" fill="white"/>
<path d="M71.1154 12.8058C71.0492 12.5776 70.9564 12.3759 70.8367 12.2007C70.717 12.0225 70.5706 11.8724 70.3974 11.7504C70.2274 11.6253 70.0322 11.53 69.8118 11.4643C69.5945 11.3986 69.3536 11.3658 69.0891 11.3658C68.5948 11.3658 68.1603 11.4877 67.7856 11.7317C67.414 11.9756 67.1243 12.3305 66.9165 12.7965C66.7087 13.2593 66.6048 13.8253 66.6048 14.4945C66.6048 15.1637 66.7071 15.7329 66.9118 16.202C67.1164 16.671 67.4061 17.0291 67.7808 17.2761C68.1555 17.5201 68.5979 17.642 69.108 17.642C69.5709 17.642 69.9661 17.5607 70.2935 17.3981C70.6242 17.2324 70.8761 16.9994 71.0492 16.6992C71.2256 16.399 71.3137 16.044 71.3137 15.6344L71.7294 15.6954H69.2356V14.1662H73.2833V15.3764C73.2833 16.2207 73.1038 16.9462 72.7448 17.5529C72.3859 18.1564 71.8915 18.6224 71.2618 18.9507C70.632 19.276 69.911 19.4386 69.0986 19.4386C68.1917 19.4386 67.3951 19.24 66.7087 18.8429C66.0223 18.4426 65.487 17.875 65.1028 17.1401C64.7218 16.4021 64.5313 15.5265 64.5313 14.5133C64.5313 13.7346 64.6447 13.0404 64.8714 12.4306C65.1012 11.8177 65.4224 11.2985 65.8349 10.8732C66.2474 10.448 66.7276 10.1243 67.2755 9.90226C67.8233 9.68023 68.4169 9.56921 69.0561 9.56921C69.604 9.56921 70.1141 9.64896 70.5864 9.80844C71.0587 9.9648 71.4775 10.1868 71.8427 10.4745C72.2111 10.7622 72.5118 11.1047 72.7448 11.5018C72.9779 11.8958 73.1274 12.3305 73.1935 12.8058H71.1154Z" fill="white"/>
<path d="M76.8504 19.4433C76.3876 19.4433 75.9751 19.3635 75.613 19.204C75.2509 19.0414 74.9643 18.8022 74.7534 18.4864C74.5455 18.1674 74.4416 17.7702 74.4416 17.2949C74.4416 16.8946 74.5156 16.5585 74.6636 16.2864C74.8116 16.0143 75.0131 15.7954 75.2682 15.6297C75.5232 15.4639 75.8129 15.3389 76.1372 15.2544C76.4647 15.17 76.8079 15.1106 77.1669 15.0762C77.5888 15.0324 77.9289 14.9917 78.1871 14.9542C78.4453 14.9136 78.6326 14.8541 78.7491 14.776C78.8656 14.6978 78.9239 14.5821 78.9239 14.4288V14.4007C78.9239 14.1036 78.8294 13.8738 78.6405 13.7112C78.4547 13.5485 78.1902 13.4672 77.847 13.4672C77.4849 13.4672 77.1968 13.547 76.9827 13.7065C76.7686 13.8628 76.6269 14.0598 76.5576 14.2975L74.6967 14.1474C74.7911 13.7096 74.9769 13.3312 75.254 13.0122C75.5311 12.6901 75.8885 12.4431 76.3262 12.2711C76.767 12.096 77.2771 12.0084 77.8565 12.0084C78.2595 12.0084 78.6452 12.0553 79.0136 12.1491C79.3852 12.2429 79.7142 12.3884 80.0008 12.5854C80.2904 12.7824 80.5187 13.0357 80.6856 13.3453C80.8525 13.6517 80.9359 14.0192 80.9359 14.4476V19.3072H79.0278V18.3081H78.9711C78.8546 18.5333 78.6987 18.7318 78.5035 18.9038C78.3083 19.0727 78.0737 19.2056 77.7998 19.3026C77.5258 19.3964 77.2094 19.4433 76.8504 19.4433ZM77.4267 18.0642C77.7226 18.0642 77.984 18.0063 78.2107 17.8906C78.4374 17.7718 78.6153 17.6123 78.7444 17.4122C78.8735 17.212 78.9381 16.9853 78.9381 16.732V15.9674C78.8751 16.0081 78.7885 16.0456 78.6783 16.08C78.5712 16.1113 78.45 16.141 78.3146 16.1691C78.1792 16.1941 78.0438 16.2176 77.9084 16.2395C77.773 16.2582 77.6502 16.2754 77.54 16.2911C77.3038 16.3255 77.0976 16.3802 76.9213 16.4553C76.7449 16.5303 76.608 16.6319 76.5104 16.7602C76.4128 16.8852 76.3639 17.0416 76.3639 17.2292C76.3639 17.5013 76.4631 17.7093 76.6615 17.8531C76.863 17.9938 77.1181 18.0642 77.4267 18.0642Z" fill="white"/>
<path d="M84.509 9.70056V19.3072H82.4969V9.70056H84.509Z" fill="white"/>
<path d="M88.1328 9.70056V19.3072H86.1208V9.70056H88.1328Z" fill="white"/>
<path d="M93.0508 19.448C92.3045 19.448 91.6622 19.2979 91.1237 18.9977C90.5884 18.6943 90.176 18.2659 89.8863 17.7124C89.5966 17.1557 89.4517 16.4975 89.4517 15.7376C89.4517 14.9964 89.5966 14.346 89.8863 13.7862C90.176 13.2264 90.5837 12.7902 91.1096 12.4775C91.6386 12.1648 92.2589 12.0084 92.9705 12.0084C93.4491 12.0084 93.8946 12.085 94.3071 12.2383C94.7228 12.3884 95.0849 12.6151 95.3935 12.9184C95.7052 13.2218 95.9476 13.6033 96.1208 14.063C96.294 14.5195 96.3806 15.0543 96.3806 15.6672V16.216H90.2547V14.9777H94.4866C94.4866 14.69 94.4236 14.4351 94.2977 14.2131C94.1717 13.991 93.997 13.8175 93.7734 13.6924C93.553 13.5642 93.2964 13.5001 93.0035 13.5001C92.6981 13.5001 92.4273 13.5704 92.1912 13.7112C91.9582 13.8488 91.7755 14.0348 91.6433 14.2694C91.511 14.5008 91.4433 14.7588 91.4402 15.0433V16.2207C91.4402 16.5772 91.5063 16.8852 91.6386 17.1448C91.774 17.4044 91.9645 17.6045 92.2101 17.7452C92.4557 17.8859 92.7469 17.9563 93.0838 17.9563C93.3074 17.9563 93.5121 17.925 93.6978 17.8625C93.8836 17.7999 94.0426 17.7061 94.1749 17.581C94.3071 17.456 94.4079 17.3027 94.4772 17.1213L96.3381 17.2433C96.2436 17.6874 96.05 18.0751 95.7571 18.4066C95.4674 18.735 95.0927 18.9914 94.633 19.1759C94.1765 19.3573 93.649 19.448 93.0508 19.448Z" fill="white"/>
<path d="M97.6936 19.3072V12.1022H99.6443V13.3594H99.7198C99.8521 12.9122 100.074 12.5744 100.386 12.3461C100.698 12.1147 101.056 11.999 101.463 11.999C101.563 11.999 101.672 12.0053 101.789 12.0178C101.905 12.0303 102.007 12.0475 102.096 12.0694V13.8425C102.001 13.8144 101.87 13.7893 101.704 13.7674C101.537 13.7456 101.384 13.7346 101.245 13.7346C100.949 13.7346 100.685 13.7987 100.452 13.9269C100.222 14.052 100.039 14.2271 99.904 14.4523C99.7718 14.6775 99.7057 14.937 99.7057 15.231V19.3072H97.6936Z" fill="white"/>
<path d="M104.599 22.0091C104.344 22.0091 104.104 21.9888 103.881 21.9481C103.661 21.9106 103.478 21.8621 103.333 21.8027L103.786 20.3111C104.023 20.383 104.235 20.4221 104.424 20.4283C104.616 20.4346 104.781 20.3908 104.92 20.297C105.062 20.2032 105.177 20.0437 105.265 19.8185L105.383 19.5136L102.78 12.1022H104.896L106.398 17.3934H106.474L107.99 12.1022H110.12L107.3 20.0859C107.165 20.4737 106.981 20.8114 106.748 21.0991C106.518 21.3899 106.227 21.6135 105.874 21.7699C105.521 21.9294 105.096 22.0091 104.599 22.0091Z" fill="white"/>
</svg>
