<svg width="22" height="22" viewBox="0 0 22 22" fill="none" xmlns="http://www.w3.org/2000/svg">
<path d="M11.0111 1.96784C13.9518 1.96784 14.3055 1.96784 15.4553 2.03417C18.4402 2.16684 19.8332 3.58191 19.9658 6.54472C20.01 7.71658 20.0322 8.04824 20.0322 10.9889C20.0322 13.9297 20.0322 14.2834 19.9658 15.4332C19.8332 18.396 18.4402 19.8111 15.4553 19.9437C14.2834 19.9879 13.9518 20.01 11.0111 20.01C8.07035 20.01 7.71658 20.0101 6.56683 19.9437C3.58191 19.8111 2.18895 18.396 2.05628 15.4332C2.01206 14.2834 1.98995 13.9297 1.98995 10.9889C1.98995 8.04824 2.01206 7.69447 2.05628 6.54472C2.18895 3.58191 3.58191 2.16684 6.56683 2.03417C7.71658 1.98995 8.07035 1.96784 11.0111 1.96784ZM11.0111 0C8.02613 0 7.65025 0.0221079 6.47839 0.066329C2.47638 0.243213 0.265327 2.47638 0.0663323 6.45628C0.0221112 7.62814 0 8.00402 0 10.9889C0 13.9739 0.0221112 14.3498 0.0663323 15.5216C0.243217 19.5236 2.47638 21.7347 6.47839 21.9337C7.65025 21.9779 8.02613 22 11.0111 22C13.996 22 14.3719 21.9779 15.5437 21.9337C19.5457 21.7568 21.7568 19.5236 21.9337 15.5216C21.9779 14.3498 22 13.9739 22 10.9889C22 8.00402 21.9779 7.62814 21.9337 6.45628C21.7568 2.45427 19.5236 0.243213 15.5437 0.066329C14.3719 -2.70168e-06 13.996 0 11.0111 0ZM11.0111 5.35076C7.89347 5.35076 5.35075 7.87135 5.35075 11.0111C5.35075 14.1286 7.87136 16.6714 11.0111 16.6714C14.1286 16.6714 16.6714 14.1508 16.6714 11.0111C16.6714 7.87135 14.1286 5.35076 11.0111 5.35076ZM11.0111 14.6593C8.97688 14.6593 7.3407 13.0231 7.3407 10.9889C7.3407 8.95478 8.97688 7.31859 11.0111 7.31859C13.0452 7.31859 14.6814 8.95478 14.6814 10.9889C14.6814 13.0231 13.0452 14.6593 11.0111 14.6593ZM16.8925 3.80302C16.1628 3.80302 15.5658 4.4 15.5658 5.12965C15.5658 5.8593 16.1628 6.45628 16.8925 6.45628C17.6221 6.45628 18.2191 5.8593 18.2191 5.12965C18.2191 4.4 17.6221 3.80302 16.8925 3.80302Z" fill="black"/>
</svg>
