<svg width="22" height="16" viewBox="0 0 22 16" fill="none" xmlns="http://www.w3.org/2000/svg">
<path d="M4.84386 15.5577C4.06333 15.5577 3.40063 15.2847 2.85576 14.7388C2.31089 14.1928 2.03846 13.5299 2.03846 12.75H0.346161V2.30773C0.346161 1.80259 0.521161 1.37502 0.871161 1.02502C1.22116 0.675025 1.64872 0.500025 2.15384 0.500025H15.7692V4.30773H18.423L21.6538 8.63465V12.75H19.8461C19.8461 13.5299 19.5729 14.1928 19.0266 14.7388C18.4802 15.2847 17.8167 15.5577 17.0362 15.5577C16.2557 15.5577 15.593 15.2847 15.0481 14.7388C14.5032 14.1928 14.2308 13.5299 14.2308 12.75H7.65381C7.65381 13.532 7.38062 14.1955 6.83424 14.7404C6.28787 15.2852 5.62441 15.5577 4.84386 15.5577ZM4.84614 14.0577C5.2128 14.0577 5.52242 13.9314 5.77499 13.6789C6.02755 13.4263 6.15384 13.1167 6.15384 12.75C6.15384 12.3833 6.02755 12.0737 5.77499 11.8211C5.52242 11.5686 5.2128 11.4423 4.84614 11.4423C4.47945 11.4423 4.16983 11.5686 3.91726 11.8211C3.66469 12.0737 3.53841 12.3833 3.53841 12.75C3.53841 13.1167 3.66469 13.4263 3.91726 13.6789C4.16983 13.9314 4.47945 14.0577 4.84614 14.0577ZM1.84614 11.25H2.56921C2.78201 10.8795 3.08938 10.5689 3.49131 10.3183C3.89324 10.0676 4.34485 9.9423 4.84614 9.9423C5.3346 9.9423 5.783 10.066 6.19134 10.3135C6.59967 10.5609 6.91024 10.8731 7.12306 11.25H14.2692V2H2.15384C2.07692 2 2.0064 2.03205 1.94229 2.09615C1.87819 2.16027 1.84614 2.23079 1.84614 2.30773V11.25ZM17.0385 14.0577C17.4051 14.0577 17.7147 13.9314 17.9673 13.6789C18.2199 13.4263 18.3462 13.1167 18.3462 12.75C18.3462 12.3833 18.2199 12.0737 17.9673 11.8211C17.7147 11.5686 17.4051 11.4423 17.0385 11.4423C16.6718 11.4423 16.3622 11.5686 16.1096 11.8211C15.857 12.0737 15.7307 12.3833 15.7307 12.75C15.7307 13.1167 15.857 13.4263 16.1096 13.6789C16.3622 13.9314 16.6718 14.0577 17.0385 14.0577ZM15.7692 9.25003H20.25L17.6538 5.80768H15.7692V9.25003Z" fill="white"/>
</svg>
